<svg width="394" height="258" viewBox="0 0 394 258" fill="none" xmlns="http://www.w3.org/2000/svg">
<path d="M72.8751 257.571C59.1853 257.571 46.7923 255.266 35.6963 250.654C24.7445 246.043 16.0982 239.342 9.75766 230.552C3.27299 221.762 0.0306549 211.17 0.0306549 198.777C0.0306549 187.249 2.26426 177.81 6.73148 170.461C11.1987 162.967 16.0982 157.347 21.4301 153.6C24.4562 151.439 27.2663 149.926 29.8601 149.061C32.454 148.052 34.1833 147.548 35.0479 147.548C35.9125 147.548 36.3448 147.908 36.3448 148.629C36.3448 149.349 35.9846 149.926 35.264 150.358C27.7706 154.825 22.0065 161.166 17.9716 169.38C14.0808 177.594 12.1354 186.6 12.1354 196.399C12.1354 207.639 14.7292 217.366 19.917 225.58C25.1047 233.938 32.3099 240.351 41.5325 244.818C50.7552 249.285 61.4189 251.519 73.5236 251.519C93.9863 251.519 113.512 243.449 132.102 227.31C150.691 211.17 168.632 188.69 185.925 159.869C192.409 148.773 198.534 137.317 204.298 125.5C210.062 113.684 215.538 102.011 220.726 90.483C225.913 79.2429 230.813 69.1557 235.424 60.2212C240.18 51.1427 244.287 43.5052 247.745 37.3087C251.348 31.1123 253.942 26.7891 255.527 24.3394C219.068 29.2389 190.824 37.0205 170.794 47.6842C150.907 58.3479 140.964 72.0377 140.964 88.7538C140.964 97.4 143.198 103.885 147.665 108.208C152.132 112.387 157.248 114.476 163.012 114.476C168.632 114.476 174.252 112.675 179.872 109.072C185.636 105.47 190.392 100.498 194.138 94.1577C198.029 87.673 199.975 80.1796 199.975 71.6775C199.975 67.4985 198.678 64.112 196.084 61.5182C196.084 60.0771 196.804 59.3566 198.245 59.3566C199.975 59.3566 201.488 60.6535 202.785 63.2474C204.226 65.8413 204.946 69.0836 204.946 72.9744C204.946 82.6294 202.641 90.9874 198.029 98.0485C193.562 104.965 187.798 110.297 180.737 114.044C173.82 117.791 166.687 119.664 159.337 119.664C153.717 119.664 148.385 118.439 143.342 115.989C138.298 113.54 134.119 109.793 130.805 104.749C127.635 99.7057 126.049 93.4371 126.049 85.9437C126.049 76.1447 129.292 67.6426 135.776 60.4374C142.405 53.0881 151.628 46.8196 163.444 41.6318C175.405 36.4441 189.455 31.9769 205.595 28.2302C221.878 24.4835 239.747 21.2411 259.201 18.5032C263.236 12.8831 266.911 8.48797 270.225 5.31768C273.684 2.1474 277.43 0.562256 281.465 0.562256C283.771 0.562256 285.572 1.13867 286.869 2.2915C288.31 3.44434 289.031 5.17358 289.031 7.47924C289.031 10.7936 287.662 13.5316 284.924 15.6932C282.186 17.7106 278.727 19.3678 274.548 20.6647C270.369 21.8176 266.19 22.7542 262.011 23.4748C256.679 32.6974 251.996 42.2083 247.961 52.0073C244.07 61.6623 240.396 71.6054 236.937 81.8368C233.623 91.924 230.02 102.3 226.129 112.963C222.383 123.483 217.916 134.291 212.728 145.387C201.92 168.299 189.455 188.113 175.333 204.829C161.211 221.689 145.575 234.659 128.427 243.737C111.279 252.96 92.7614 257.571 72.8751 257.571ZM265.902 18.0709C271.81 17.0621 275.773 15.8373 277.791 14.3962C279.808 12.8111 280.817 11.37 280.817 10.0731C280.817 8.34386 279.952 7.47924 278.223 7.47924C276.638 7.47924 274.692 8.70412 272.387 11.1539C270.225 13.4595 268.064 15.7652 265.902 18.0709Z" fill="white"/>
<path d="M248.757 175C242.848 175 238.453 172.91 235.571 168.731C232.833 164.408 231.464 159.221 231.464 153.168C231.464 147.548 232.545 141.712 234.706 135.66C237.012 129.031 240.182 122.978 244.217 117.502C248.396 112.027 252.936 107.631 257.835 104.317C262.879 100.858 267.85 99.1292 272.75 99.1292C278.658 99.1292 282.981 101.147 285.719 105.182C288.601 109.217 290.042 114.332 290.042 120.529C290.042 124.852 289.322 129.391 287.881 134.146C286.44 138.902 284.494 143.585 282.045 148.197C283.918 150.07 286.584 151.007 290.042 151.007C294.077 151.007 297.536 149.71 300.418 147.116C303.3 144.522 306.11 139.911 308.848 133.282C310.577 133.282 311.442 133.93 311.442 135.227C308.704 141.856 305.533 146.756 301.931 149.926C298.472 152.952 294.005 154.393 288.529 154.249C285.215 154.249 282.477 153.312 280.315 151.439C276.28 158.068 271.453 163.688 265.833 168.299C260.357 172.766 254.665 175 248.757 175ZM251.783 170.244C255.097 170.244 258.412 168.875 261.726 166.137C265.04 163.255 268.066 160.013 270.804 156.41C273.542 152.808 275.488 149.71 276.641 147.116C274.335 142.937 272.966 139.839 272.534 137.821C272.245 135.66 272.101 134.074 272.101 133.066C272.101 130.328 272.822 128.238 274.263 126.797C275.704 125.356 277.145 124.636 278.586 124.636C280.604 124.636 282.333 125.5 283.774 127.229C284.062 125.644 284.278 124.203 284.422 122.906C284.566 121.465 284.638 120.096 284.638 118.799C284.638 115.053 283.918 112.027 282.477 109.721C281.18 107.271 279.09 106.046 276.208 106.046C273.182 106.046 270.012 107.343 266.697 109.937C263.383 112.531 260.213 115.989 257.187 120.312C254.305 124.636 251.783 129.463 249.621 134.795C247.748 139.262 246.307 143.513 245.298 147.548C244.289 151.439 243.785 155.042 243.785 158.356C243.785 161.958 244.433 164.841 245.73 167.002C247.027 169.164 249.045 170.244 251.783 170.244Z" fill="white"/>
<path d="M278.995 243.954C271.501 243.954 266.17 242.44 262.999 239.414C259.829 236.532 258.244 233.074 258.244 229.039C258.244 222.842 260.549 217.078 265.161 211.746C269.628 206.559 275.176 202.38 281.805 199.209C289.298 195.751 297.8 192.941 307.311 190.779C316.966 188.618 326.189 186.24 334.979 183.646C337.717 178.891 340.239 173.487 342.545 167.434C344.85 161.238 346.94 155.258 348.813 149.494C350.686 143.585 352.199 138.758 353.352 135.011C351.623 138.181 349.389 142.072 346.651 146.683C344.058 151.151 341.103 155.546 337.789 159.869C334.475 164.192 330.872 167.795 326.981 170.677C323.235 173.559 319.272 175 315.093 175C313.508 175 311.562 174.64 309.257 173.919C307.095 173.199 305.15 171.902 303.42 170.028C301.835 168.011 301.043 165.057 301.043 161.166C301.043 157.419 302.195 153.312 304.501 148.845C306.807 144.234 309.112 139.694 311.418 135.227C310.698 135.227 310.049 135.155 309.473 135.011C309.04 134.867 308.824 134.291 308.824 133.282C309.257 132.417 310.121 130.544 311.418 127.662C312.715 124.78 314.156 121.609 315.741 118.151C317.47 114.692 318.984 111.666 320.28 109.072C321.866 105.758 323.595 103.452 325.468 102.155C327.486 100.858 329.431 100.21 331.304 100.21H344.706C343.697 101.075 342.4 102.083 340.815 103.236C339.374 104.245 338.005 105.83 336.708 107.992C332.817 114.62 329.431 121.033 326.549 127.229C323.667 133.282 320.569 139.767 317.254 146.683C315.669 149.998 314.516 153.024 313.796 155.762C313.075 158.5 312.715 160.878 312.715 162.895C312.715 167.651 314.3 170.028 317.47 170.028C320.929 170.028 325.108 167.218 330.007 161.598C334.042 156.843 338.077 151.223 342.112 144.738C346.291 138.109 350.254 131.336 354.001 124.419C357.892 117.358 361.278 110.874 364.16 104.965C365.745 101.795 368.555 100.21 372.59 100.21H384.479C380.3 103.092 377.057 106.839 374.752 111.45C372.59 116.061 370.14 121.97 367.402 129.175C364.376 137.101 361.494 145.314 358.756 153.817C356.018 162.319 352.992 171.037 349.678 179.971C356.739 177.522 362.647 174.351 367.402 170.461C372.158 166.57 376.337 161.598 379.939 155.546C383.686 149.349 387.433 141.928 391.18 133.282C392.909 133.282 393.773 133.93 393.773 135.227C390.603 141.856 387.721 147.692 385.127 152.736C382.533 157.779 379.651 162.247 376.481 166.137C373.311 169.884 369.348 173.343 364.592 176.513C359.837 179.827 353.713 182.998 346.219 186.024C342.761 192.22 338.798 198.633 334.331 205.262C330.007 212.035 325.036 218.303 319.416 224.067C313.94 229.975 307.816 234.731 301.043 238.333C294.414 242.08 287.065 243.954 278.995 243.954ZM273.807 239.63C278.562 239.63 283.462 238.189 288.506 235.307C293.549 232.425 298.449 228.751 303.204 224.283C307.96 219.96 312.283 215.493 316.174 210.882C320.208 206.414 323.451 202.452 325.901 198.993C326.621 197.984 327.414 196.688 328.278 195.102C329.143 193.517 330.007 192.004 330.872 190.563C323.811 192.436 316.029 194.454 307.527 196.615C299.169 198.921 291.892 201.443 285.696 204.181C278.779 207.063 273.375 211.17 269.484 216.502C265.449 221.834 263.432 226.589 263.432 230.768C263.432 233.362 264.296 235.451 266.025 237.037C267.611 238.766 270.204 239.63 273.807 239.63Z" fill="white"/>
</svg>
