<svg width="700" height="809" viewBox="0 0 700 809" fill="none" xmlns="http://www.w3.org/2000/svg">
<g clip-path="url(#clip0_282_1425)">
<rect width="700" height="808.679" fill="#0F1921"/>
<path d="M119.038 270.792C157.827 55.6698 266.517 10.3597 350.474 10.3597C434.432 10.3597 543.339 55.6698 582.128 270.803V273.409H681.854L680.469 269.527C632.706 104.906 503.318 0 350.474 0C197.631 0 67.2945 104.906 19.3127 269.527L18.0913 273.409H118.973V270.803H119.028L119.038 270.792Z" fill="#233746"/>
<path d="M698.561 373.211H592.477V404.345C592.477 594.887 529.163 797.054 350.474 797.054C171.786 797.054 108.69 594.833 108.69 404.29V373.157H1.22136V375.763C1.22136 386.123 0 395.207 0 404.29C0 510.581 34.8631 610.394 96.956 686.827C161.655 764.59 250.967 808.679 350.529 808.679C450.091 808.679 539.577 764.59 604.265 686.827C666.358 610.34 700 510.526 700 404.29C700 395.207 700 386.123 698.615 375.763V373.157L698.561 373.211Z" fill="#233746"/>
</g>
<defs>
<clipPath id="clip0_282_1425">
<rect width="700" height="808.679" fill="white"/>
</clipPath>
</defs>
</svg>
