<svg width="120" height="120" viewBox="0 0 120 120" fill="none" xmlns="http://www.w3.org/2000/svg">
<g clip-path="url(#clip0_382_666)">
<rect width="120" height="120" fill="white"/>
<rect width="120" height="120" fill="url(#paint0_linear_382_666)"/>
<path d="M45.5265 40.7628C48.8251 42.5918 51.5846 45.2562 53.5282 48.4885C55.4956 51.8792 56.4975 55.7438 56.4253 59.6633C56.4654 63.5789 55.4656 67.435 53.5282 70.838C51.6238 74.1014 48.8547 76.775 45.5265 78.5637C42.1246 80.4895 38.2591 81.4439 34.3518 81.3229C30.4599 81.3097 26.6278 80.3636 23.1771 78.5637C19.8386 76.7395 17.0333 74.0768 15.0375 70.838C13.0132 67.5154 11.9617 63.6916 12.0024 59.8012C11.943 55.865 12.995 51.9919 15.0375 48.6265C16.9364 45.3236 19.7037 42.604 23.0391 40.7628C26.4658 38.8999 30.3139 37.9498 34.2138 38.0036C38.1518 38 42.0325 38.9465 45.5265 40.7628ZM28.0057 52.9032C26.4232 54.8402 25.6344 57.3054 25.7983 59.8012C25.6574 62.2942 26.4436 64.7512 28.0057 66.6992C28.82 67.5487 29.8094 68.2109 30.9053 68.6397C32.0011 69.0685 33.1772 69.2537 34.3518 69.1825C35.5059 69.254 36.6615 69.0684 37.7351 68.6389C38.8088 68.2095 39.7736 67.547 40.56 66.6992C42.1424 64.7622 42.9313 62.2971 42.7673 59.8012C42.9313 57.3054 42.1424 54.8402 40.56 52.9032C39.7655 52.0661 38.7993 51.4107 37.7277 50.9821C36.6561 50.5534 35.5045 50.3617 34.3518 50.42C33.1717 50.2851 31.9765 50.4409 30.8704 50.8737C29.7643 51.3066 28.7808 52.0033 28.0057 52.9032Z" fill="white"/>
<path d="M86.9143 70.6998C85.095 73.9463 82.36 76.5853 79.0506 78.2876C75.3881 80.1981 71.317 81.1922 67.1861 81.1847H49.1134V38.6932H67.1861C71.3132 38.5702 75.4014 39.5209 79.0506 41.4524C82.3518 43.1021 85.0887 45.695 86.9143 48.9022C88.7908 52.2236 89.7435 55.9869 89.6735 59.801C89.6766 63.6071 88.7281 67.3536 86.9143 70.6998ZM73.2563 66.8369C74.1707 65.9196 74.8778 64.8169 75.33 63.6032C75.7822 62.3895 75.9689 61.093 75.8776 59.801C75.9689 58.509 75.7822 57.2125 75.33 55.9988C74.8778 54.785 74.1707 53.6824 73.2563 52.7651C71.2261 51.033 68.6096 50.1444 65.9445 50.2818H62.7714V69.1822H65.9445C67.2585 69.3051 68.5837 69.1606 69.8403 68.7575C71.097 68.3545 72.259 67.7011 73.2563 66.8369Z" fill="white"/>
<path d="M103.788 38.9692C104.916 39.5452 105.833 40.4625 106.409 41.5904C107.065 42.7206 107.399 44.0088 107.375 45.3153C107.417 46.6238 107.081 47.9167 106.409 49.0402C105.755 50.1086 104.857 51.0069 103.788 51.6614C102.708 52.3158 101.464 52.6506 100.201 52.6271C98.8967 52.6342 97.6129 52.3014 96.4762 51.6614C95.3483 51.0854 94.431 50.1681 93.855 49.0402C93.1992 47.91 92.8652 46.6218 92.8893 45.3153C92.8477 44.0068 93.1829 42.7139 93.855 41.5904C94.5096 40.522 95.4078 39.6237 96.4762 38.9692C97.5997 38.2971 98.8926 37.9619 100.201 38.0034C101.462 37.9975 102.701 38.3311 103.788 38.9692ZM97.9938 42.97C97.7191 43.2897 97.5156 43.6641 97.3967 44.0685C97.2778 44.4728 97.2462 44.8978 97.304 45.3153C97.3207 46.1446 97.5588 46.9543 97.9938 47.6606C98.2443 47.9578 98.5642 48.1887 98.9251 48.3331C99.2859 48.4774 99.6768 48.5308 100.063 48.4884C100.446 48.499 100.828 48.431 101.184 48.2886C101.539 48.1463 101.862 47.9325 102.133 47.6606C102.407 47.3409 102.611 46.9665 102.73 46.5621C102.849 46.1578 102.88 45.7328 102.822 45.3153C102.806 44.486 102.568 43.6763 102.133 42.97C101.862 42.698 101.539 42.4843 101.184 42.342C100.828 42.1996 100.446 42.1316 100.063 42.1422C99.6779 42.1122 99.2908 42.1713 98.932 42.3148C98.5731 42.4583 98.2521 42.6825 97.9938 42.97Z" fill="white"/>
<path d="M106.204 66.4231H102.065L97.6503 59.801V66.4231H93.5116V53.179H97.6503L102.065 59.939V53.179H106.204V66.4231Z" fill="white"/>
<path d="M97.7883 71.6655V73.321H103.169V76.4941H97.7883V78.2876H106.342V81.5986H93.6495V68.3545H106.342V71.6655H97.7883Z" fill="white"/>
</g>
<defs>
<linearGradient id="paint0_linear_382_666" x1="60" y1="0" x2="60" y2="120" gradientUnits="userSpaceOnUse">
<stop stop-color="#FF0000"/>
<stop offset="1"/>
</linearGradient>
<clipPath id="clip0_382_666">
<rect width="120" height="120" fill="white"/>
</clipPath>
</defs>
</svg>
