<svg xmlns="http://www.w3.org/2000/svg" width="240" height="53"><path d="M237.352 30.012c1.408 0 2.204-.153 2.418-.46a1.53 1.53 0 0 0 .184-.826 5.176 5.176 0 0 0-.459-1.913 4.927 4.927 0 0 0-1.163-1.576 4.96 4.96 0 0 0-1.684-.995 4.94 4.94 0 0 0-1.943-.26 7.343 7.343 0 0 0-5.372 2.31 7.535 7.535 0 0 0-1.576 2.541 7.472 7.472 0 0 0-.46 2.954 6.712 6.712 0 0 0 .398 2.693 6.794 6.794 0 0 0 1.454 2.311 6.832 6.832 0 0 0 2.25 1.53c.842.353 1.76.521 2.678.506a6.376 6.376 0 0 0 3.566-1.026 6.361 6.361 0 0 0 2.387-2.846.679.679 0 0 0-.275-.429.664.664 0 0 0-.505-.122 3.729 3.729 0 0 1-1.439 1.362 3.709 3.709 0 0 1-1.943.398 5.294 5.294 0 0 1-2.112-.46 5.301 5.301 0 0 1-1.76-1.254 5.84 5.84 0 0 1-1.133-1.837 5.356 5.356 0 0 1-.306-2.142c0-.413.077-.46.75-.46h6.076zm-6.03-1.424c-.413 0-.489-.092-.489-.245a3.611 3.611 0 0 1 1.178-2.127 3.528 3.528 0 0 1 2.265-.888c.306-.03.612.016.903.123.291.107.551.275.781.49.229.214.397.474.505.765.107.29.168.597.137.903a.95.95 0 0 1-.076.413 1.106 1.106 0 0 1-.26.337 3.572 3.572 0 0 1-1.745.245h-3.183zm-7.07-.52c0-1.423.031-3.107.107-4.27a.86.86 0 0 0-.214-.199.836.836 0 0 0-.275-.092 21.319 21.319 0 0 1-4.561 1.913.932.932 0 0 0-.123.398c0 .138.016.276.077.398l.413.245c.873.52.873.934.873 2.525v5.173c0 2.602-.138 2.984-1.332 3.168l-.627.092a.75.75 0 0 0-.169.536c0 .183.107.367.245.505a63.345 63.345 0 0 1 3.688-.108c1.301 0 2.495.031 3.796.108a.807.807 0 0 0 .229-.505c0-.184-.045-.383-.168-.52l-.627-.093c-1.179-.183-1.332-.566-1.332-3.168v-6.09ZM222.4 19.36c.291 0 .597-.03.873-.138.275-.107.52-.26.734-.474.215-.214.383-.46.49-.735.107-.275.168-.566.153-.872 0-.597-.23-1.163-.658-1.592a2.236 2.236 0 0 0-1.592-.658c-.597 0-1.163.245-1.591.658a2.232 2.232 0 0 0-.658 1.592 2.135 2.135 0 0 0 .642 1.592c.215.214.46.367.735.474.275.107.566.153.872.138zm-15.289-.78c0-1.516.031-3.689.107-5.097a.451.451 0 0 0-.489-.26c-1.454.551-3.26 1.3-4.607 1.683-.245.108-.214.674 0 .796l.49.322c.765.459.796.704.796 3.045v15.84c0 1.316-.108 3.168-.108 3.306 0 .137.215.245.368.245.076 0 .168 0 .245-.016.091-.153.214-.29.367-.382.153-.092.321-.169.505-.184 1.5.551 3.076.888 4.683.949 4.591 0 8.326-2.877 8.326-7.882a6.32 6.32 0 0 0-.398-2.663 6.565 6.565 0 0 0-1.439-2.28 6.574 6.574 0 0 0-2.234-1.515 6.834 6.834 0 0 0-2.648-.49 7.056 7.056 0 0 0-3.688 1.133c-.215 0-.291-.153-.291-.628V18.58zm0 9.626c0-1.21.077-1.653.383-1.867a3.48 3.48 0 0 1 1.729-.46c2.479 0 4.653 2.204 4.653 6.336 0 2.985-1.301 5.189-3.643 5.189-.459 0-.903-.108-1.316-.307a2.698 2.698 0 0 1-1.025-.872 6.056 6.056 0 0 1-.781-3.535zm-29.674 5.938c0 2.601-.123 2.984-1.332 3.168l-.627.091a.75.75 0 0 0-.169.536c0 .184.108.367.245.505a61.861 61.861 0 0 1 3.643-.107c1.301 0 2.494.03 3.719.107a.794.794 0 0 0 .244-.505.854.854 0 0 0-.168-.536l-.536-.076c-1.178-.214-1.331-.597-1.331-3.183V29.43c0-1.377.031-1.684.459-2.25a3.058 3.058 0 0 1 1.133-.826 3.247 3.247 0 0 1 1.377-.26c2.035 0 2.678 1.407 2.678 3.275v4.775c0 2.601-.137 2.969-1.331 3.183l-.459.076a.75.75 0 0 0-.169.536c0 .184.107.367.245.505a53.3 53.3 0 0 1 3.505-.107c1.301 0 2.464.03 3.688.107a.79.79 0 0 0 .245-.505.86.86 0 0 0-.168-.536l-.536-.076c-1.178-.214-1.331-.597-1.331-3.183V28.97c-.092-.643.045-1.286.428-1.806a3.071 3.071 0 0 1 1.071-.796 3.207 3.207 0 0 1 1.301-.275c2.204 0 2.847 1.407 2.847 3.275v4.775c0 2.601-.153 2.969-1.332 3.168l-.566.091a.75.75 0 0 0-.168.536c0 .184.107.367.245.505a59.5 59.5 0 0 1 3.627-.107c1.301 0 2.479.03 4.009.107.138-.153.306-.78 0-1.025l-.78-.092c-1.209-.184-1.332-.566-1.332-3.168v-5.433c0-2.755-1.331-4.714-4.3-4.714a8.225 8.225 0 0 0-4.484 1.638c-.23.168-.49.306-.781.367-.122 0-.336-.214-.551-.536a3.968 3.968 0 0 0-1.423-1.086 4.079 4.079 0 0 0-1.745-.383c-2.387 0-3.305.842-5.019 1.76-.215-.03-.322-.107-.322-.336 0-.536.016-1.087.077-1.623a.507.507 0 0 0-.184-.214.572.572 0 0 0-.275-.076 24.811 24.811 0 0 1-4.561 1.913.917.917 0 0 0-.122.397c0 .138.015.276.076.398l.413.245c.873.52.873.934.873 2.525v5.173zm-10.193-10.147a7.6 7.6 0 0 0-2.969.52 7.299 7.299 0 0 0-2.525 1.653 7.66 7.66 0 0 0-1.669 2.51 7.348 7.348 0 0 0-.535 2.969c0 4.591 3.382 7.178 7.422 7.178 4.041 0 7.698-2.602 7.698-7.591a6.963 6.963 0 0 0-.52-2.847 7.274 7.274 0 0 0-1.607-2.403 7.158 7.158 0 0 0-2.433-1.545 7.216 7.216 0 0 0-2.847-.444zm-3.551 7.132c0-3.918 1.408-5.724 3.214-5.724 2.602 0 3.612 3.474 3.612 6.412 0 2.709-.689 5.586-3.107 5.586-2.54 0-3.703-3.091-3.703-6.275zm-13.651 3.015c0 2.601-.153 2.984-1.331 3.168l-.628.091a.739.739 0 0 0-.168.52.74.74 0 0 0 .229.506 62.354 62.354 0 0 1 3.658-.107c1.301 0 2.495.03 4.591.107a.79.79 0 0 0 .245-.505.86.86 0 0 0-.168-.536l-1.377-.122c-1.225-.153-1.378-.536-1.378-3.138v-4.805c0-1.73.214-2.54 1.026-2.54a3.25 3.25 0 0 1 1.683.673c.291.183.612.275.949.29a1.928 1.928 0 0 0 1.423-.597c.184-.198.322-.413.429-.673.092-.245.137-.52.122-.78 0-.245-.061-.49-.168-.704a1.968 1.968 0 0 0-.429-.582 1.7 1.7 0 0 0-.627-.352 1.899 1.899 0 0 0-.72-.076c-1.178 0-2.341 1.056-3.443 1.836a.248.248 0 0 1-.138-.046c-.046-.03-.092-.061-.122-.092a.638.638 0 0 1-.077-.137c0-.046-.015-.107 0-.153 0-.322.016-.903.062-1.592a.478.478 0 0 0-.184-.245.402.402 0 0 0-.291-.076 26.973 26.973 0 0 1-4.423 1.913.93.93 0 0 0-.122.398c0 .137.015.275.076.397l.414.245c.872.52.872.934.872 2.525v5.173zm-7.453-10.147c-5.648 0-8.647 3.765-8.647 7.866a7.023 7.023 0 0 0 .505 2.74 7.149 7.149 0 0 0 1.53 2.326 7.155 7.155 0 0 0 4.882 1.913 6.594 6.594 0 0 0 3.673-.98 6.548 6.548 0 0 0 2.51-2.846.718.718 0 0 0-.245-.474.746.746 0 0 0-.505-.169 3.798 3.798 0 0 1-1.622 1.485 3.94 3.94 0 0 1-2.173.382c-3.183 0-5.02-2.708-5.02-5.555 0-3.306 2.082-5.265 4.086-5.265a4.222 4.222 0 0 1 1.837.704c.551.368 1.01.857 1.347 1.439a.633.633 0 0 0 .29.275.849.849 0 0 0 .383.107c.291 0 .872-.535.872-1.637a2.333 2.333 0 0 0-.153-.98 2.119 2.119 0 0 0-.551-.81 8.77 8.77 0 0 0-3.015-.49zm-18.166 10.147c0 2.601-.153 2.984-1.331 3.168l-.628.091a.734.734 0 0 0-.168.52.74.74 0 0 0 .229.506 62.354 62.354 0 0 1 3.658-.107c1.301 0 2.495.03 4.591.107a.79.79 0 0 0 .245-.505.86.86 0 0 0-.168-.536l-1.378-.122c-1.224-.153-1.377-.536-1.377-3.138v-4.805c0-1.73.214-2.54 1.025-2.54a3.25 3.25 0 0 1 1.684.673c.291.183.612.275.949.29.26 0 .535-.045.78-.153a2.16 2.16 0 0 0 .658-.443c.184-.2.322-.414.414-.674.091-.245.137-.52.122-.78 0-.245-.061-.49-.168-.704a1.986 1.986 0 0 0-.429-.582 1.707 1.707 0 0 0-.627-.352 1.899 1.899 0 0 0-.72-.076c-1.178 0-2.341 1.056-3.428 1.836-.046 0-.107-.015-.138-.046-.045-.03-.091-.061-.122-.092a.593.593 0 0 1-.076-.137c0-.046-.016-.107 0-.153 0-.322.015-.903.061-1.592a.478.478 0 0 0-.184-.245.402.402 0 0 0-.291-.076 26.973 26.973 0 0 1-4.423 1.913.93.93 0 0 0-.122.398c0 .137.015.275.076.397l.414.245c.872.52.872.934.872 2.525v5.173zm-5.632-4.132c1.408 0 2.204-.153 2.418-.46a1.53 1.53 0 0 0 .184-.826 5.158 5.158 0 0 0-.46-1.913 4.871 4.871 0 0 0-2.861-2.571 4.947 4.947 0 0 0-1.944-.26 7.343 7.343 0 0 0-5.372 2.31 7.322 7.322 0 0 0-1.576 2.541 7.472 7.472 0 0 0-.459 2.954 6.695 6.695 0 0 0 .398 2.693 6.779 6.779 0 0 0 1.454 2.311 6.828 6.828 0 0 0 2.249 1.53c.842.353 1.76.521 2.678.506a6.373 6.373 0 0 0 3.566-1.026 6.37 6.37 0 0 0 2.388-2.846.684.684 0 0 0-.276-.429.664.664 0 0 0-.505-.122 3.726 3.726 0 0 1-1.438 1.362 3.712 3.712 0 0 1-1.944.398 5.354 5.354 0 0 1-2.112-.46 5.301 5.301 0 0 1-1.76-1.254 5.837 5.837 0 0 1-1.132-1.837 5.356 5.356 0 0 1-.306-2.142c0-.413.076-.46.749-.46h6.076zm-6.03-1.424c-.413 0-.49-.092-.49-.245a3.613 3.613 0 0 1 1.179-2.127 3.526 3.526 0 0 1 2.265-.888c.306-.03.612.016.903.123.29.107.551.275.78.49.214.214.398.474.505.765.107.29.153.597.138.903 0 .138-.015.29-.077.413a1.106 1.106 0 0 1-.26.337 3.535 3.535 0 0 1-1.729.245h-3.183zM95.866 18.58c0-1.515.03-3.688.107-5.096a.451.451 0 0 0-.2-.214.489.489 0 0 0-.29-.046c-1.454.551-3.26 1.3-4.591 1.683-.245.108-.215.674 0 .796l.49.322c.764.459.795.704.795 3.045v15.84c0 1.316-.107 3.168-.107 3.306 0 .137.214.245.367.245.077 0 .169 0 .245-.016.092-.153.214-.29.367-.382.153-.092.322-.169.505-.184 1.5.551 3.077.888 4.668.949 4.592 0 8.326-2.877 8.326-7.882a6.32 6.32 0 0 0-.398-2.663 6.565 6.565 0 0 0-1.439-2.28 6.564 6.564 0 0 0-2.234-1.515 6.833 6.833 0 0 0-2.648-.49 7.015 7.015 0 0 0-3.688 1.133c-.214 0-.29-.153-.29-.628V18.58zm0 9.627c0-1.21.076-1.653.382-1.867a3.483 3.483 0 0 1 1.73-.46c2.479 0 4.652 2.204 4.652 6.336 0 2.985-1.301 5.189-3.643 5.189a3.02 3.02 0 0 1-1.316-.307 2.698 2.698 0 0 1-1.025-.872 6.052 6.052 0 0 1-.78-3.535zM80.376 29.72c.98 0 1.087 0 1.424.949l1.652 4.774c.46 1.515.337 1.714-.902 1.867l-.78.092a.74.74 0 0 0-.123.536.756.756 0 0 0 .244.49c1.225-.03 2.77-.107 4.286-.107 1.806 0 3.106.03 4.56.107a.83.83 0 0 0 .184-.52.793.793 0 0 0-.214-.506l-.536-.091c-1.775-.322-1.959-.567-2.77-2.924l-5.066-14.737c-.566-1.561-1.025-3.23-1.591-4.806a.598.598 0 0 0-.26-.214.834.834 0 0 0-.337-.077 6.296 6.296 0 0 1-2.464 1.714 5.764 5.764 0 0 1-.658 2.556L72.22 31.343c-.75 1.882-1.3 3.352-1.73 4.27-.52 1.163-.902 1.484-1.927 1.622l-1.056.168a.736.736 0 0 0-.169.52.72.72 0 0 0 .215.506 53.998 53.998 0 0 1 3.474-.107c1.453.03 2.601.03 3.719.107a.793.793 0 0 0 .244-.505.858.858 0 0 0-.168-.536l-1.01-.168c-1.316-.169-1.454-.291-.75-2.342l1.423-4.224c.322-.949.291-.949 1.21-.949h4.682zm-4.132-1.577c-.842 0-.933 0-.55-1.01l1.469-4.117c.627-1.637.902-2.525 1.055-2.77h.077c.398.888.735 1.822.995 2.77l1.469 4.224c.29.842.122.903-.842.903zm-51.36 23.86c.382.015.75.03 1.132.03 14.37 0 26.017-11.646 26.017-26.017C52.034 11.647 40.388 0 26.017 0 11.647 0 0 11.646 0 26.017c0 4.27 1.025 8.295 2.847 11.86.734-.091 1.469-.168 2.203-.229 2.327-.214 4.561-.78 6.627-1.898.98-.52 1.928-1.147 2.433-2.157.398-.796 1.01-1.255 1.776-1.577 1.5-.642 3.091-.933 4.683-1.163.581-.076 1.148-.214 1.607-.612.382-.337.566-.72.413-1.27-.23-.78-.658-1.255-1.515-1.454-4.27-.964-8.31-2.587-12.243-4.484a2.767 2.767 0 0 1-.444-.291c-.842-.673-.888-1.47-.046-2.173.23-.184.214-.352.168-.597-.107-.536-.214-1.087-.23-1.638 0-.581.291-.826.873-.857.49-.015.872.2 1.056.628.168.413.29.872.383 1.331.153.735.688 1.026 1.33.72a.473.473 0 0 0-.03-.123c0-.015 0-.046-.015-.061-.092-.337-.199-.673-.29-1.01-.2-.673-.399-1.362-.582-2.036-.077-.275-.092-.566-.077-.841 0-.322.214-.551.52-.643.873-.276 1.424.046 1.592.949.337 1.882 1.332 3.474 2.311 5.065l.23.368c.321.52.704.444.994-.092.276-.49.291-1.01.26-1.546-.06-1.255-.168-2.494-.872-3.612a1.382 1.382 0 0 1-.199-.658c0-.137.077-.336.2-.428.397-.337 1.59-.184 1.851.275.29.52.536 1.056.689 1.623.55 1.974.688 3.994.81 6.03.032.52.353.826.797.765.474-.062.566-.26.52-.857-.046-.536-.076-1.087 0-1.607.046-.398.413-.505.735-.26.199.153.398.367.459.596.23.842.474 1.684.597 2.556.076.597.183 1.056.795 1.286.123.046.23.153.337.245l.061.06c.475.43.95.873 1.378 1.271.199-.076.382-.153.566-.245a9.84 9.84 0 0 1 .934-.367c1.209-.352 2.479-.367 3.734-.352.597 0 1.163-.092 1.668-.413.597-.368.627-1.026.076-1.424a7.274 7.274 0 0 0-1.193-.719c-1.347-.627-2.801-.888-4.27-1.056-.964-.107-1.913-.306-2.74-.872-.872-.597-.505-1.76.215-2.005.137-.046.26-.077.398-.123.183-.045.352-.107.52-.168h.03c.2-.076.414-.153.567-.29.49-.46 1.025-.613 1.637-.353.276.107.551.26.75.46.398.397.873.351 1.347.29.321-.046.398-.26.23-.535a1.986 1.986 0 0 0-.153-.23 5.341 5.341 0 0 1-.368-.643c-.168-.398 0-.72.398-.857.78-.29 1.684 0 2.036.75.168.367.244.796.32 1.21.032.152.062.305.093.458.03.138.061.291.076.444.046.29.092.566.2.842.26.704.979.933 1.622.52.244-.153.49-.398.627-.658.107-.184.168-.398.245-.612a5.51 5.51 0 0 1 .199-.536c.214-.428.428-.887.75-1.24.306-.351.704-.26 1.01.077.382.429.428.903.214 1.408-.03.061-.046.107-.076.169a4.582 4.582 0 0 0-.23.581c-.153.551.076.934.582 1.025.704.123 1.178-.122 1.224-.704.03-.336-.03-.688-.123-1.025-.06-.23-.091-.428.108-.55.183-.108.443-.261.612-.2 1.331.444 2.066 1.454 1.744 2.938-.26 1.255-1.025 2.112-2.157 2.679-1.255.612-2.617.872-3.995 1.04-.413.062-.842.245-1.209.46-.383.23-.444.612-.29 1.025.214.582.841.842 1.514.643 1.363-.398 2.725-.612 4.133-.322 2.142.444 3.933 2.265 4.178 4.27.076.643-.245 1.102-.873 1.27-.137.046-.29.092-.428.154-1.301.704-2.648.948-4.117.535-.23-.061-.597.046-.811.2-.214.152-.352.443-.46.688a6.083 6.083 0 0 1-2.31 2.693c-.811.52-1.7.811-2.617 1.041-.092.03-.23.138-.245.214-.214 1.133-.796 2.112-1.424 3.046a6.353 6.353 0 0 0-.887 1.867c-.582 2.05-1.592 3.902-2.678 5.708-.444.735-.796 1.5-.98 2.342z" /></svg>
