<svg width="240" height="77" viewBox="0 0 240 77" xmlns="http://www.w3.org/2000/svg">
<path d="M24.2187 53.9089C19.7736 53.9089 17.6401 50.5764 18.7528 46.7146C21.0591 38.7209 35.8636 26.8707 45.9476 26.8707C53.3147 26.8707 52.7476 33.2927 48.4375 38.7695L46.0556 41.3404C37.5056 49.5286 29.5767 53.9035 24.2241 53.9035L24.2187 53.9089ZM60.2768 3.00538e-05C47.4005 3.00538e-05 33.2171 7.69126 24.316 14.9666L25.0181 15.9604C38.8397 6.50841 58.0191 0.361907 63.3069 9.58167C66.0992 14.4481 61.357 24.2674 54.6866 32.0288C56.2854 28.5991 55.2321 22.0151 45.926 22.0151C30.4517 22.0151 0 42.0048 0 62.4589C0 70.6578 5.82784 76.005 15.4257 76.005C41.1243 76.005 75.9779 34.9184 75.9779 14.2807C75.9779 6.99452 71.6786 -0.00537109 60.2822 -0.00537109L60.2768 3.00538e-05ZM93.3588 53.9089C91.8681 53.9089 90.6205 53.3958 89.8427 52.4722C89.0325 51.4946 88.7895 50.1173 89.173 48.6914C90.0209 45.5911 93.4453 43.166 96.9614 43.166H105.231L102.282 53.9089H93.3642H93.3588ZM117.129 21.691C114.758 18.8554 110.934 17.5862 108.19 17.5862H93.159L90.6096 26.8653H104.782L106.138 27.0058C106.138 27.0058 107.445 27.1516 108.158 28.0968C108.741 28.8854 108.822 30.0574 108.406 31.5913L107.737 34.0327H98.8086C91.1228 34.0327 80.4069 39.4068 78.0196 48.0973C76.8313 52.429 77.8737 56.1828 80.18 58.9428C82.4701 61.6811 86.791 63.1827 91.4576 63.1827H99.7268H110.243L115.174 45.2238L118.804 32.0234C120.23 26.8383 118.685 23.5382 117.135 21.691H117.129ZM220.361 17.5862C216.294 17.5862 212.524 18.7582 209.446 20.9835C206.345 23.225 204.633 25.9201 203.612 29.6361C201.403 37.6838 207.885 41.5673 213.097 44.3218C216.834 46.2987 220.059 48 219.362 50.5278C218.865 52.3426 218.055 53.9251 213.459 53.9251H199.427L196.877 63.2097H212.406C216.57 63.2097 220.415 62.3617 223.51 60.0446C226.616 57.7167 228.361 54.476 229.446 50.517C230.483 46.747 229.781 43.1552 227.296 40.4654C225.228 38.2132 222.246 36.6468 219.621 35.2641C216.257 33.4979 213.086 31.829 213.642 29.809C213.977 28.5883 215.225 26.8815 217.942 26.8815H231.59L234.14 17.6024H220.345V17.597L220.361 17.5862ZM138.918 17.5862C134.85 17.5862 131.075 18.7582 128.002 20.9835C124.902 23.225 123.189 25.9201 122.163 29.6361C119.954 37.6838 126.441 41.5673 131.648 44.3218C135.385 46.2987 138.615 48 137.918 50.5278C137.421 52.3426 136.611 53.9251 132.009 53.9251H117.983L115.433 63.2097H130.967C135.137 63.2097 138.982 62.3617 142.072 60.0446C145.177 57.7167 146.927 54.476 148.008 50.517C149.045 46.747 148.337 43.1552 145.863 40.4654C143.795 38.2132 140.808 36.6468 138.183 35.2641C134.823 33.4979 131.653 31.829 132.209 29.809C132.544 28.5883 133.792 26.8815 136.503 26.8815H150.146L152.701 17.6024H138.918V17.597V17.5862ZM160.112 17.5862L147.932 63.1881H158.221L170.395 17.5862H160.112ZM197.779 17.5862C179.664 17.651 170.179 29.4201 167.166 40.3898C163.595 53.3958 170.692 63.1935 183.671 63.1935H192.367L194.917 53.9089H186.221C181.365 53.9089 174.684 50.1767 177.374 40.3844C179.513 32.6014 187.285 26.8653 195.829 26.8653H201.349L203.899 17.5862H197.774H197.779ZM233.432 61.1086H234.329V59.1372H235.047C235.528 59.1372 235.863 59.1858 236.052 59.2938C236.376 59.4829 236.543 59.8664 236.543 60.4443V60.844L236.559 61.006C236.559 61.006 236.57 61.0492 236.576 61.0654L236.586 61.1086H237.434L237.402 61.0492C237.375 60.9628 237.359 60.8764 237.359 60.7899C237.348 60.6657 237.343 60.5415 237.343 60.4173V60.05C237.332 59.7691 237.235 59.4991 237.067 59.2722C236.884 59.0076 236.586 58.8455 236.181 58.7807C236.495 58.7321 236.749 58.6565 236.927 58.5377C237.262 58.327 237.429 58.003 237.429 57.5493C237.429 56.9227 237.164 56.5014 236.635 56.28C236.338 56.1612 235.868 56.1072 235.231 56.1072H233.438V61.114M236.009 58.408C235.825 58.4783 235.533 58.5215 235.15 58.5215H234.329V56.7067H235.096C235.598 56.7067 235.965 56.7661 236.192 56.8903C236.419 57.0145 236.538 57.2576 236.538 57.6249C236.538 58.0084 236.36 58.273 236.009 58.408ZM238.628 55.3996C237.753 54.53 236.554 54.0547 235.306 54.0709C234.026 54.0709 232.924 54.5138 232.012 55.3996C231.12 56.2422 230.629 57.4034 230.645 58.6133C230.645 59.8826 231.099 60.9628 232.001 61.8486C232.908 62.7398 234.01 63.1881 235.306 63.1881C236.603 63.1881 237.71 62.7398 238.623 61.8486C239.535 60.9574 239.995 59.8772 239.995 58.6133C239.995 57.3494 239.535 56.28 238.623 55.3996H238.628ZM238.164 55.8425C238.952 56.6095 239.341 57.5331 239.341 58.6133C239.341 59.6935 238.947 60.6387 238.164 61.4111C237.386 62.1834 236.435 62.5669 235.317 62.5669C234.199 62.5669 233.254 62.1834 232.465 61.4111C231.704 60.6711 231.283 59.6611 231.299 58.6133C231.299 57.5277 231.693 56.6095 232.471 55.8425C233.216 55.0917 234.242 54.6704 235.312 54.6866C236.387 54.6704 237.418 55.0917 238.158 55.8425H238.164Z" />
</svg>
