<svg xmlns="http://www.w3.org/2000/svg" width="120" height="34"><path d="M82.5 11.661s0 .636.494 1.06c0 0 .424.425 1.06.425 0 0 .636 0 .99-.425 0 0 .424-.494.424-1.06l-.424-1.06s-.495-.424-.99-.424c0 0-.636 0-1.06.424-.07 0-.495.424-.495 1.06zM25.393 0c-1.06 0-2.191.141-3.393.424 0 0-6.36 1.555-13.428 8.128 0 0-3.322 3.392-5.725 7.774 0 0-2.473 4.594-2.827 8.34 0 0-.353 4.311 2.05 6.502 0 0 2.756 2.544 8.905 2.05 0 0 3.816-.495 7.986-3.04 0 0 1.98-1.272 3.322-2.544 0 0-.636 2.191.283 3.746 0 0 .848 1.484 2.756 1.837 0 0 1.413.283 3.392-.494 0 0 1.273-.566 2.12-.99 0 0 1.697-.918 3.393-2.261 0 0-.353 1.272.424 2.403 0 0 .919 1.272 2.544 1.413 0 0 4.382.354 10.46-7.138l-4.31 6.855 3.886-.07 3.393-5.866s3.534-6.078 4.311-6.785c0 0 1.838-2.403 4.594-2.969l1.838.142s.777.353.777 1.201l-1.343-.212s-.777.071-1.201.92c0 0-.354.777-.212 1.554 0 0 .212.636.848.919l.424.141 1.343-.212s2.403-.919 5.654-4.947l-.778 1.343-2.756 4.664-3.18 5.654s-.92 1.838-.495 2.969c0 0 .424 1.06 1.837 1.342l3.04-.212s1.696-.494 3.11-1.696l1.978-1.625s2.403-2.05 4.594-4.453l-.141.212s-1.909 3.463-2.262 4.665c0 0-.778 2.473.99 3.463l1.978.212s1.626-.212 3.251-1.414l2.686-2.261s2.262-2.12 3.463-3.675c0 0-.636 1.413-.777 2.403 0 0-.495 3.25 2.544 4.593l2.827.212s1.13-.07 2.827-.706c0 0 4.029-1.272 9.612-6.502 0 0 2.827-2.615 4.806-4.948l-7.068 11.874h3.463l2.615-4.382 3.322-5.442s1.908-3.04 5.372-4.947c0 0 1.413-.849 2.473-.99 0 0 1.131-.212 1.343.354 0 0-1.555-.354-1.979 1.272 0 0-.353 1.625.919 2.12 0 0 .989.353 1.767-.212 0 0 .707-.495.919-1.484 0 0 .212-.99-.283-1.696 0 0-.566-.849-1.838-.92 0 0-1.413-.07-4.311 1.838 0 0-2.12 1.414-3.039 2.262l2.403-4.029h-3.534s-3.321 5.654-9.258 10.531c0 0-5.796 4.665-9.047 4.806 0 0-3.18.212-3.463-2.19 0 0-.212-1.414.636-3.464 0 0 1.98.212 4.594-.636 0 0 2.474-.778 4.523-2.191 0 0 2.191-1.484 2.969-3.04 0 0 .919-1.766-.142-3.25 0 0-1.979-1.908-6.219-.142 0 0-4.382 1.838-7.633 6.15l-.848 1.271-.07.142-2.333 2.685-2.403 2.403s-2.898 2.827-4.311 1.98c0 0-.566-.354-.566-1.273 0 0 0-.919.636-1.979l6.715-11.732h-3.04s-1.696 2.756-3.604 5.371c0 0-3.816 5.09-7.986 7.987 0 0-2.827 2.19-4.453 1.413 0 0-.707-.353-.636-1.201 0 0 .07-.99.99-2.333l6.572-11.237 3.676-.07.494-.495h-3.746l3.958-6.997-3.321.07s-2.333 3.958-4.1 6.361c0 0-3.25 4.311-5.936 5.442 0 0 .494-.636.494-1.555l-.07-.777s-.212-.99-1.131-1.413l-.848-.212-1.555.14s-1.838.425-3.604 1.91l1.413-2.404h-3.322s-3.039 5.372-6.997 10.036c0 0-5.159 5.937-7.986 5.23 0 0-.848-.424-.919-1.413 0 0 0-.99.919-2.474l6.714-11.379-3.322.07-1.06 1.838-.707 1.343s.142-.424 0-1.272c0 0-.282-2.12-2.261-2.544l-1.555-.142s-4.028-.07-8.552 3.958c0 0-3.11 2.757-5.512 6.997 0 0-4.736 4.453-9.754 5.371 0 0-4.452.92-6.36-1.06 0 0-2.12-2.12-2.12-5.866 0 0 .07-4.452 3.18-10.39 0 0 3.321-4.946 5.371-7.137 0 0 5.23-5.725 10.601-7.139 0 0 4.453-1.13 6.856.849 0 0 2.12 1.696 2.262 5.23l1.201-2.05s1.555-2.403 2.898-3.817c0 0-1.272.566-2.757.778 0 0-1.908.212-2.827-.353.142-.071-1.908-1.343-5.3-1.414Zm11.379 16.467c1.342 0 2.05.637 2.05.637 1.625 1.484.352 4.31.352 4.31-2.544 5.23-6.219 8.34-6.219 8.34l-2.262 1.555c-3.463 1.697-4.947.495-4.947.495-1.201-.99-.707-3.322-.707-3.322.354-1.555 1.626-3.887 1.626-3.887l2.544-3.675c2.262-2.544 4.877-3.817 4.877-3.817 1.06-.494 1.979-.636 2.685-.636zm59.862.425h.141s.777.07 1.06.494c0 0 .354.495.212 1.414 0 0-.212 2.473-2.968 4.806 0 0-3.11 2.685-6.714 2.544l.706-1.413s1.555-3.04 3.888-5.442c0-.071 2.19-2.403 3.675-2.403z" /></svg>