<svg xmlns="http://www.w3.org/2000/svg" width="120" height="34"><path d="M.363.656h15.579c13.394 0 18.635 7.86 18.635 16.184 0 8.323-6.722 16.015-19.51 16.015H.39c-.267 0-.364-.17-.364-.316 0-.17.17-.316.413-.316h2.743c.849 0 1.408-.51 1.408-1.455V2.79c0-.703-.34-1.48-1.456-1.48H.34C.12 1.31 0 1.162 0 .993c0-.146.05-.34.363-.34m9.732 30.696c0 .703.315.922.776.922h4.125c10.167 0 13.856-7.788 13.856-15.602 0-7.813-3.906-15.384-12.496-15.384H10.75c-.582 0-.63.485-.63.703l-.024 29.361M36.131.656c-.243 0-.46.096-.46.29 0 .194.12.316.34.316h2.742c.63 0 1.238.436 1.238 1.65v27.881c0 .583-.437 1.456-1.213 1.456h-2.717c-.316 0-.34.242-.34.34 0 .096-.023.266.34.266h13.2c.194 0 .461-.024.461-.22 0-.194-.05-.388-.389-.388h-2.547c-.364 0-1.359-.219-1.359-1.335V2.62c0-.801.51-1.334 1.432-1.334h2.5c.219 0 .34-.121.34-.29 0-.17-.121-.317-.413-.317H36.134V.656m20.623 16.111C56.757 7.861 60.736.656 68.21.656c7.474 0 11.453 7.207 11.453 16.111S75.901 32.88 68.21 32.88c-7.449.024-11.453-7.208-11.453-16.112zM68.21 33.56c10.628 0 17.326-7.522 17.326-16.768C85.536 7.548 78.91 0 68.21 0S50.884 7.522 50.884 16.767c0 9.246 6.915 16.791 17.326 16.791m51.296-.897c-4.174.437-6.479-6.406-8.59-9.658-1.577-2.403-4.925-4.853-8.226-5.338 5.436-.315 11.526-2.061 11.526-8.226 0-4.998-3.082-8.783-14.39-8.783h-13.03c-.17 0-.34.096-.34.29 0 .194.17.316.34.316h2.984c.63 0 1.238.436 1.238 1.65v27.881c0 .583-.437 1.456-1.213 1.456H86.87c-.243 0-.34.193-.34.29a.34.34 0 0 0 .34.316H100.7c.193 0 .363-.097.363-.29 0-.194-.12-.316-.389-.316h-2.79c-.363 0-1.359-.243-1.359-1.335V17.738h1.432c6.842 0 7.352 7.425 10.75 11.673 2.913 3.64 6.722 4.101 8.88 4.101.923 0 1.553-.024 2.135-.17.364-.12.437-.752-.219-.68m-21.592-31.4h2.014c3.446 0 9.027 1.358 9.027 7.861 0 5.97-4.951 7.984-9.536 7.984h-2.937V2.62c0-.825.51-1.358 1.432-1.358z" /></svg>