<svg xmlns="http://www.w3.org/2000/svg" width="120" height="35"><path d="M5.91 19.404c-.02 4.242-.043 8.485-.066 12.727-.005 1.117.023 2.514-1.488 2.572-1.672.066-4.348.51-4.348-1.447C0 23.504 0 13.753 0 4c0-.575.04-1.566.122-2.977C.165.25 1.376.122 2.157.109 8.766.01 15.375.013 21.984.114c1 .015 1.503.53 1.51 1.546.01 1.716.31 3.35-1.66 3.353H6.024c-.086 0-.13.043-.13.129v8.925c0 .079.041.12.12.12 3.514.017 7.085-.117 10.585.098 1.117.068 1.647.471 1.703 1.627.08 1.683.393 3.363-1.78 3.358-3.494-.01-6.988-.01-10.483.002-.084 0-.127.046-.13.13zm27.135 9.551c.117.216.342.35.588.353 4.828.043 9.645.058 14.455.043 1.001-.005 2.273-.114 2.314 1.084.058 1.741.063 2.849.015 3.325-.104 1.014-1.52 1.009-2.217 1.014-8.28.06-14.8.045-19.562-.043-1.239-.023-1.865-.68-1.875-1.964-.066-8.83-.048-17.658.053-26.485.016-1.356-.116-3.036-.07-4.561.038-1.222.772-1.68 1.96-1.685A1620.68 1620.68 0 0 1 48.25.043c1.278.008 2.175-.07 2.182 1.424.01 2.268.5 3.53-2.486 3.538-4.951.013-9.91.015-14.875.008a.187.187 0 0 0-.188.187v8.875c0 .089.046.134.135.132 4.667-.018 9.33-.01 13.99.027 1.663.016 1.21 2.687 1.19 3.703-.021 1.168-.743 1.33-1.782 1.333H32.99a.102.102 0 0 0-.104.101c-.003 2.894-.008 5.796-.015 8.705 0 .367.055.661.174.88zm27.79-17.065c-.02 7.078-.02 14.164-.003 21.254.006 1.196-.397 1.551-1.591 1.612-.839.043-1.837.063-2.995.063-1.338 0-1.442-.785-1.442-1.938V1.28c0-.631.428-1.191 1.029-1.204a102.47 102.47 0 0 1 4.044-.005c.484.01.864.22 1.14.628a57.42 57.42 0 0 1 2.403 3.878c3.408 6.013 6.804 12.04 10.19 18.081.028.05.09.07.144.043a.104.104 0 0 0 .056-.096c0-7.228 0-14.458.002-21.69.003-.596.558-.806 1.103-.826A48.36 48.36 0 0 1 78.7.094c.74.03 1.11.418 1.11 1.135.012 10.639.02 21.277.017 31.915 0 .441-.058.768-.167.984-.499.968-3.766.666-5.218.648-.6-.007-.638-.218-.879-.638a3460.95 3460.95 0 0 1-12.58-22.286.084.084 0 0 0-.111-.03.07.07 0 0 0-.038.068zm24.477 22.73c-1.122-.715-.849-2.613-.854-3.772-.05-9.394-.073-18.785-.066-28.18.003-1.695.196-2.546 2.074-2.567 2.51-.027 5.025-.038 7.539-.03 1.83.008 3.256.132 4.277.378 10.215 2.445 13.358 14.133 11.072 23.174-1.923 7.623-8.269 11.181-15.882 11.16-2.62-.007-5.245-.035-7.878-.078a.51.51 0 0 1-.282-.086zm5.327-5.257c2.18-.162 4.176.287 6.184-.192 8.182-1.949 9.589-14.676 4.923-20.418-2.726-3.358-7.057-3.786-11.1-3.735-.116 0-.174.06-.174.175v24.016c0 .111.056.162.167.154zm23.705 5.216c-.363-.424-.545-.981-.548-1.673a9925.684 9925.684 0 0 1-.002-30.868c.002-1.427.519-1.972 1.961-1.967 1.004 0 4.232-.492 4.235 1.095.015 16.626.015 27.237-.003 31.834-.007 2.453-3.613 1.885-5.408 1.703a.35.35 0 0 1-.235-.124z" /></svg>