<svg xmlns="http://www.w3.org/2000/svg" width="120" height="19"><path d="M104.642 6.954c-.608-1.536-1.322-2.881-2.574-3.993-1.348-1.194-2.986-1.943-4.8-1.943-4.683 0-7.07 4.095-7.07 8.346 0 4.25 2.48 8.311 7.105 8.311 3.441 0 5.913-2.422 7.339-5.336v3.16c-2.14 2.117-4.893 3.196-7.924 3.196-5.596 0-9.789-3.62-9.789-9.39 0-5.77 4.029-9.293 9.519-9.293 3.042 0 5.994 1.054 8.193 3.148v3.794m-29.358 0c-.61-1.536-1.325-2.881-2.577-3.993-1.346-1.194-2.985-1.943-4.8-1.943-4.68 0-7.083 4.095-7.083 8.346 0 4.25 2.495 8.311 7.117 8.311 3.443 0 5.9-2.422 7.343-5.336v3.16c-2.144 2.117-4.905 3.196-7.927 3.196-5.593 0-9.785-3.62-9.785-9.39 0-5.77 4.027-9.293 9.516-9.293 3.046 0 5.994 1.054 8.197 3.148v3.794M29.674.644h4.556c-.623.455-.834.97-.834 1.73v10.62c0 2.913 3.42 4.341 5.923 4.341s5.667-1.439 5.667-4.283V2.375c0-.714-.176-1.205-.656-1.732h2.48c-.502.515-.69 1.03-.69 1.732v10.677c0 3.838-4.528 5.313-7.666 5.313-3.138 0-7.948-1.428-7.948-5.371V2.373c0-.725-.292-1.263-.83-1.73M17.827 6.894c-.69-1.485-1.45-2.952-2.726-4.016-1.361-1.147-3.08-1.837-4.859-1.837-4.73 0-6.848 4.274-6.848 8.474s2.024 8.17 6.59 8.17c1.86 0 3.677-.807 4.824-2.27V12.14c0-.892-.293-1.465-.986-1.992h4.836c-.515.586-.83 1.182-.83 1.992v3.276c-2.212 2.06-4.965 3.323-8.02 3.323C4.412 18.74 0 14.773 0 9.247 0 3.721 4.352 0 9.68 0c3.312 0 5.994 1.217 8.147 3.662zM115.772.643H120c-.468.362-.749.808-.749 1.416v14.55c0 .608.293 1.042.749 1.404h-4.228c.46-.362.741-.808.741-1.404V2.06c0-.608-.273-1.054-.741-1.416z" /></svg>