<svg xmlns="http://www.w3.org/2000/svg" width="120" height="13"><path d="m53.769.233 3.034 7.319L59.83.232H62l-4.964 12.004-.233.233-.233-.233L51.6.233Zm-10.906 0c1.165 0 2.276.612 2.881 1.497L44.58 2.894h-.366c-.24-.519-.772-.831-1.35-.831-.686 0-1.331.565-1.365 1.284-.026.539.22.878.666 1.164.479.313.678.44 1.33.799.712.392 2.516 1.157 2.516 3.18s-1.67 3.853-3.82 3.853c-.273 0-.778-.034-1.15-.12-1.052-.253-1.69-.652-2.383-1.464l1.497-1.53.52.432c.232.18.745.552 1.23.619.992.133 1.657-.519 1.783-1.164.1-.513-.026-1.271-.851-1.664 0 0-1.484-.825-2.136-1.197-.665-.386-1.364-1.431-1.364-2.682 0-.931.426-1.836 1.118-2.468.532-.486 1.264-.865 2.402-.865zM110.232 0l7.765 7.765v-7.3l.233-.232h1.53l.233.233V12.23h-.366l-7.631-7.632v7.399l-.233.233h-1.531l-.233-.233V.233ZM87.33.233v1.77l-.233.233h-1.763v10h-2.003v-10H81.33V.466l.232-.233zm7.333 0v1.77l-.233.233h-1.764v10h-2.002v-10H88.66V.466l.233-.233zm-92.66 0v10h3.999v2.003H0V.466L.233.233zm11.331 0a6.003 6.003 0 0 1 6.002 6.002 6.003 6.003 0 0 1-6.002 6.001 6.003 6.003 0 0 1-6.002-6.001A6.003 6.003 0 0 1 13.334.233zm88.661 0a6.003 6.003 0 0 1 6.002 6.002 6.003 6.003 0 0 1-12.004 0 6.003 6.003 0 0 1 6.002-6.002zm-78.228 0L24 .466V8.23c0 1.104.898 2.002 2.003 2.002a2.005 2.005 0 0 0 2.003-2.002V.466l.232-.233h1.53l.234.233V8.23a3.998 3.998 0 1 1-7.998 0V.466l.233-.233zm12.23 0v11.77l-.233.233H34V.466l.232-.233h1.77zm29.768 0 .233.233V8.23a2 2 0 0 0 4 0V.466l.232-.233h1.53l.233.233V8.23a3.998 3.998 0 1 1-7.997 0V.466l.232-.233h1.53zm12.237 0v11.77l-.233.233h-1.764V.466l.233-.233h1.77zM13.334 2.236a4.018 4.018 0 1 0 .799 7.997 3.998 3.998 0 1 0 0-7.997h-.792zm88.661 0a3.998 3.998 0 1 0 0 7.997 3.998 3.998 0 1 0 0-7.997z" /></svg>