<svg width="120" height="19" viewBox="0 0 120 19" xmlns="http://www.w3.org/2000/svg">
<path fill-rule="evenodd" clip-rule="evenodd" d="M0 0.29964L1.81188 2.28317V16.7988L0.465396 18.6961L8.69794 18.7097L7.21591 16.9622L7.06228 11.7333L15.0011 11.7742C17.4094 10.998 19.881 9.34129 19.9985 5.99606C19.9623 2.75069 17.92 0.671836 15.5479 0.258789L0 0.29964ZM6.76858 1.23013V10.5532L12.8594 10.594C14.2466 9.50923 15.2948 8.68314 15.2542 6.07776C15.2361 3.95806 14.7707 2.10615 12.7329 1.22559H6.76858V1.23013Z" />
<path fill-rule="evenodd" clip-rule="evenodd" d="M23.812 0.195347L25.6239 2.17888V16.6945L24.2819 18.5964L32.5145 18.61L31.0324 16.8625L30.8788 11.6336H30.9104L39.4141 18.669L46.4718 18.6145L40.0286 13.2131H34.6517L32.7585 11.6472L38.8131 11.679C41.2169 10.9028 43.693 9.24607 43.8105 5.90085C43.7744 2.65547 41.732 0.576621 39.3599 0.163574L23.812 0.204425V0.195347ZM30.5806 1.1213V10.4444L36.6714 10.4852C38.0586 9.4004 39.1068 8.5743 39.0662 5.96893C39.0481 3.84923 38.5827 1.99732 36.5449 1.11676H30.5806V1.1213Z" />
<path fill-rule="evenodd" clip-rule="evenodd" d="M53.2676 0.172652H60.366L69.6061 16.7944C70.0038 18.0789 71.2011 17.9201 72.0009 18.4829H63.0544L64.3964 18.0744L64.3106 16.8352L62.0016 13.2495L54.1486 13.2903L52.4678 16.749C52.4136 17.1439 51.9798 17.4435 52.3006 17.9291L52.9287 18.5192L49.0654 18.433L50.7463 17.9246L57.0901 4.97035V4.08525L54.4107 0.622011L53.2676 0.163574V0.172652ZM54.6457 12.1102L57.908 6.12326L61.3058 12.0784L54.6457 12.1102Z" />
<path fill-rule="evenodd" clip-rule="evenodd" d="M101.267 0.208785H108.365L117.605 16.8305C118.003 18.1151 119.2 17.9562 120 18.519H111.054L112.396 18.1105L112.31 16.8714L110.001 13.2856L102.148 13.3264L100.467 16.7851C100.413 17.18 99.9789 17.4796 100.3 17.9653L100.928 18.5553L97.0646 18.4691L98.7454 17.9607L105.089 5.00649V4.12139L102.41 0.658144L101.267 0.199707V0.208785ZM102.645 12.1463L105.907 6.15939L109.305 12.1145L102.645 12.1508V12.1463Z" />
<path fill-rule="evenodd" clip-rule="evenodd" d="M74.4544 0L87.1015 0.0680847C91.1726 0.994037 93.7661 3.40424 94.5659 7.61187L94.5297 10.8936C93.7887 14.6427 91.3533 17.23 87.0653 18.5372L74.3867 18.5735V18.1786C76.3115 18.0379 76.4651 17.8246 76.4696 16.7171V1.76112C76.4471 0.939569 76.2799 0.431203 74.4183 0.372196L74.4499 0L74.4544 0ZM81.6432 1.27999L81.6297 17.4569C83.297 17.4615 84.7429 17.6158 85.5607 17.2118C87.4132 16.3903 88.2717 15.133 88.3531 13.9483L88.3079 4.39373C88.3079 2.8641 86.5954 1.78836 85.6104 1.50694C84.9055 1.25276 83.4958 1.24368 81.6432 1.27999Z" />
</svg>
