<svg width="649" height="261" viewBox="0 0 649 261" fill="none" xmlns="http://www.w3.org/2000/svg">
<g clip-path="url(#clip0_534_856)">
<path d="M86.7164 57.1919C85.9107 66.058 88.1027 74.9502 86.6731 83.5909C89.5755 111.923 82.5924 145.281 85.8241 172.911C86.2919 176.906 88.8824 179.463 92.7205 180.321C92.6165 187.28 84.8797 189.447 78.945 188.953C79.3348 198.313 73.2788 200.566 68.0718 206.243C63.2201 211.53 58.3597 220.925 49.0634 219.252C36.6827 217.016 53.6119 195.002 54.6602 214.919C67.8466 210.187 66.9455 192.168 67.6646 180.702C69.5793 150.065 69.8912 117.062 70.2898 86.2603C70.3764 79.3962 71.4507 58.8646 69.8653 53.6819C67.604 46.2805 49.3926 45.2751 43.0507 46.0205C24.6487 48.1958 9.73817 67.7567 12.2767 86.1476C14.2001 100.092 32.732 103.308 41.6385 93.1331C45.9877 88.167 50.5362 76.1202 44.6881 71.0674C32.8966 84.8476 30.1329 61.118 44.0903 64.6887C49.8604 66.162 52.9708 74.7248 52.9881 80.1502C52.9968 83.0709 51.5672 86.0436 51.2726 88.9037C51.0647 90.9317 52.4423 92.2317 51.6712 95.3258C46.4642 116.299 9.82481 121.309 1.76744 96.6604C-6.45455 71.5354 15.4996 47.6065 38.7014 41.6437C69.3801 33.7656 99.6082 53.8119 128.615 41.4531C134.61 38.8964 140.909 34.9876 143.932 29.0076C143.932 26.5289 138.899 25.8355 141.507 20.5661C144.989 13.5287 154.702 17.0647 148.715 28.6262C145.301 35.2216 146.202 33.5923 144.366 40.7424C139.8 58.4919 101.202 61.612 86.7251 57.1833L86.7164 57.1919Z" fill="white"/>
<path d="M553.256 81.459C577.974 84.969 577.896 120.381 553.68 125.235C566.408 142.421 565.619 165.18 571.952 184.958C574.058 187.956 584.758 184.498 588.734 184.568C598.949 184.741 613.045 188.927 609.597 201.962C605.274 218.273 565.48 214.745 558.367 200.272C543.093 207.448 523.825 217.241 506.428 215.837C494.991 214.91 499.202 209.597 495.416 205.619C492.193 202.231 486.813 202.881 484.785 195.037C481.086 180.711 498.154 182.453 495.286 191.579C494.576 193.832 491.023 195.228 492.288 198.374C511.973 206.46 534.213 197.637 553.663 192.368C552.987 187.211 551.064 182.288 550.327 177.14C548.569 164.903 550.405 152.041 548.404 140.064C547.685 135.774 545.484 127.532 539.584 129.291C536.093 131.05 536.301 134.491 540.702 134.352C539.376 138.096 538.215 138.244 534.629 136.944V164.244C534.629 164.833 536.613 168.655 537.219 169.453C537.774 170.189 545.97 175.944 541.993 175.944H510.803C510.699 175.944 509.07 174.688 509.919 174.202C513.844 171.767 517.613 168.265 518.185 163.395C516.599 141.364 520.229 116.568 518.202 94.8752C518.011 92.7951 517.847 91.2178 516.798 89.3458C515.005 86.1477 509.989 85.021 510.37 81.4763H553.256V81.459ZM534.629 121.326C549.929 123.718 558.541 109.929 553.247 96.2012C550.7 89.5971 540.988 84.085 534.629 87.9591V121.326ZM604.554 193.512C599.703 187.601 581.379 188.502 575.383 192.896C578.875 202.811 587.643 209.372 598.351 206.313C603.844 204.744 608.808 198.703 604.554 193.512Z" fill="white"/>
<path d="M148.654 81.4588C164.769 83.6169 172.601 102.909 163.331 116.074C159.475 121.543 153.749 122.99 148.238 126.093C159.718 139.414 162.291 157.709 168.113 173.795C172.584 186.154 181.239 211.192 198.463 201.485C198.948 199.431 191.202 198.131 193.914 191.761C197.172 184.108 208.738 188.71 203.817 199.925C201.634 204.908 197.96 206.633 193.082 208.254C190.925 208.973 188.413 208.618 186.507 209.493C183.656 210.802 184.861 213.454 178.103 213.263C150.162 212.475 148.698 158.099 142.408 138.833C141.602 136.38 138.855 129.975 136.334 129.265C131.812 127.991 130.815 133.746 136.083 133.468C135.061 136.788 133.397 137.351 130.01 136.918C131.751 149.406 124.586 166.939 138.258 174.185C139.107 174.661 137.478 175.927 137.374 175.927H106.184L105.309 174.193C109.208 171.29 112.933 168.69 113.566 163.386C111.937 141.398 115.662 116.49 113.592 94.8577C113.366 92.509 113.107 91.5816 111.989 89.5276C110.014 85.8616 105.621 85.0989 105.751 81.4675C119.102 82.7589 135.685 79.7341 148.637 81.4675L148.654 81.4588ZM130.027 121.326C144.054 123.363 152.622 112.373 149.365 98.9484C147.294 90.4376 138.188 83.9115 130.027 87.9589V121.326Z" fill="white"/>
<path d="M381.278 175.927C380.507 172.581 383.973 172.763 385.957 170.64C387.144 169.375 388.738 166.775 389.033 165.05C388.062 142.846 390.323 119.541 389.448 97.5012C389.266 93.0118 388.799 88.8864 385.194 85.775C383.167 84.0244 380.455 84.9257 381.278 81.459H417.233C417.935 81.459 424.242 83.227 425.447 83.643C460.111 95.8805 449.619 175.927 417.233 175.927H381.278ZM405.537 169.86C413.04 169.921 417.545 171.264 422.38 164.608C431.355 152.223 431.78 115.216 427.153 101.011C423.965 91.2178 415.951 85.0297 405.546 87.5257V169.86H405.537Z" fill="white"/>
<path d="M625.85 136.319C622.896 138.668 623.511 141.745 617.542 144.033C594.487 152.882 593.751 112.893 608.808 111.827C619.222 111.091 620.071 127.488 613.028 127.479C607.587 126.916 609.268 120.884 609.995 117.001C598.498 117.166 601.054 138.885 610.481 139.509C621.648 140.246 626.041 124.203 626.127 115.554C626.24 103.091 618.053 83.5908 602.744 91.1136C580.599 101.99 582.54 164.296 609.562 167.277C638.534 170.467 645.725 131.353 643.68 109.747C643.29 105.596 637.598 82.5248 638.595 81.4761C645.231 81.5281 640.076 85.4282 640.423 87.7682C640.683 89.5189 644.607 94.121 645.552 96.5997C654.978 121.283 645.119 171.169 614.544 177.443C570.705 186.439 556.548 103.646 595.856 84.2148C614.916 74.794 631.551 84.8648 635.606 104.816C637.13 112.304 637.078 125.833 632.729 132.359C630.485 135.73 628.042 134.577 625.85 136.319Z" fill="white"/>
<path d="M200.889 79.9596C228.613 77.4202 239.243 114.592 237.45 136.484C235.665 158.307 217.125 185.911 192.207 174.835C158.488 159.841 163.002 83.435 200.889 79.9682V79.9596ZM200.828 85.9743C192.788 87.7857 188.248 108.803 187.321 115.797C185.597 128.866 186.853 148.063 191.999 160.309C199.953 179.255 210.601 172.59 216.042 156.661C221.162 141.658 221.292 122.132 217.818 106.749C216.059 98.9572 211.502 83.565 200.837 85.9743H200.828Z" fill="white"/>
<path d="M305.903 175.927L311.829 169.288C320.883 143.01 327.086 115.658 334.39 88.7911C333.385 79.301 319.107 83.513 321.585 90.4464C322.382 92.6651 327.511 90.9404 326.67 97.4145C325.683 104.998 312.41 104.695 311.162 95.7072C307.281 67.7048 346.017 81.823 360.485 81.4677C359.896 86.7891 354.551 88.2104 350.063 88.8084L349.37 90.3684C356.916 113.439 360.433 138.98 368.058 161.861C369.236 165.388 370.145 168.248 372.623 171.16C373.975 172.755 377.207 173.257 376.955 175.927H347.065C346.961 175.927 345.332 174.67 346.181 174.185C355.495 170.059 351.033 159.165 347.091 152.501C344.397 147.942 333.506 136.926 328.057 137.741C326.887 145.784 320.692 158.403 320.588 166.012C320.528 170.709 323.811 172.061 327.147 174.185C327.996 174.662 326.367 175.927 326.263 175.927H305.903ZM337.959 103.993C335.672 103.741 336.59 104.045 336.218 105.275C335.074 109.037 329.529 129.048 330.274 131.18L346.623 142.135L337.959 104.001V103.993Z" fill="white"/>
<path d="M409.869 19.9335C408.119 22.5508 395.011 28.2536 394.413 30.0303C392.923 34.4677 397.714 43.5851 397.731 48.5252L383.401 37.215L367.425 46.7918L371.748 35.5337C295.073 36.5563 217.982 45.2491 143.898 64.9834L158.401 58.2753C186.636 47.7625 216.197 40.7164 245.94 35.7763C286.435 29.0509 328.1 25.7835 369.149 25.1162L360.485 16.4668L378.679 16.8914C380.646 15.9554 384.779 2.98992 385.619 -0.00878906L391.155 18.2781L409.869 19.9335Z" fill="white"/>
<path d="M301.571 169.427C300.609 175.077 287.813 177.66 282.901 177.686C232.832 178.007 232.823 79.7429 281.211 79.6563C287.414 79.6476 293.817 83.6603 299.821 79.7256C309.36 101.185 283.706 114.072 281.627 133.876C283.134 135.115 284.581 132.636 286.401 132.645C294.432 132.662 291.902 147.647 282.519 143.409C276.784 140.818 279.166 131.05 278.005 127.133C277.494 125.408 274.938 124.793 274.705 122.609C273.847 114.549 294.06 102.155 292.769 94.2511C291.374 85.7663 279.989 83.071 273.648 88.3837C264.299 96.2185 262.644 124.186 263.416 135.661C264.247 147.933 271.386 181.933 290.247 169.366C295.983 165.544 296.771 160.613 299.63 155.369C300.185 154.355 299.587 153.913 301.571 154.26C301.025 158.888 302.325 165.033 301.571 169.427Z" fill="white"/>
<path d="M501.706 81.4589V98.7924C498.908 98.5584 497.885 94.7624 496.083 92.717C494.749 91.209 492.808 89.0683 490.937 88.3316C487.497 86.9709 478.799 86.7109 475.714 88.8256V118.726C478.703 119.367 482.16 119.359 485.019 118.059C488.693 116.386 489.325 111.585 493.042 110.926V134.326C489.897 133.789 489.689 130.521 487.844 128.684C484.439 125.295 480.22 125.434 475.714 125.659V168.993H493.475C493.969 168.993 496.36 167.026 496.975 166.428C499.921 163.551 500.502 157.9 504.305 156.86V175.927H451.456C450.633 172.573 454.271 172.659 456.221 170.727C459.106 167.867 459.86 162.996 460.154 159.061C461.688 138.417 459.002 115.823 460.041 94.9617C459.21 91.2523 457.841 87.8463 454.878 85.3762C453.067 83.8682 450.641 84.9602 451.456 81.4502H501.706V81.4589Z" fill="white"/>
<path d="M597.875 60.6759L595.067 61.3173C580.564 57.9719 565.966 54.7045 551.28 52.2518C512.57 45.7864 473.306 43.0217 434.137 40.7337L436.727 56.3339L424.13 45.8904L409.886 53.7339L415.83 37.8823L404.679 26.8755L420.292 27.3089L428.063 13C428.254 15.7734 430.194 28.7475 432.083 29.3542C488.32 33.7569 545.129 39.9363 597.883 60.6759H597.875Z" fill="white"/>
<path d="M344.024 259.995H337.959V244.828C337.959 242.705 335.533 238.718 333.064 238.51C331.522 238.38 327.563 240.529 327.563 242.228V259.995H321.498V244.828C321.498 242.991 319.358 239.099 317.192 238.701C315.199 237.912 311.101 240.382 311.101 242.228V259.995H305.037V233.994C307.566 234.185 309.932 232.859 310.659 235.728C312.86 233.128 316.022 232.66 319.271 233.18C322.009 233.613 324.123 236.742 325.267 236.534C326.124 236.378 327.658 233.838 329.902 233.318C335.958 231.906 344.015 235.442 344.015 242.228V259.995H344.024Z" fill="white"/>
<path d="M373.481 249.594H353.554C353.701 252.194 357.297 254.916 359.576 255.297C363.396 255.938 364.505 252.697 367 252.212C368.049 252.004 373.299 251.406 372.606 253.477C363.015 270.273 339.268 255.895 349.049 239.446C357.02 226.047 377.137 235.034 373.49 249.594H373.481ZM367.416 244.394C366.316 236.282 354.802 236.698 353.554 244.394H367.416Z" fill="white"/>
<path d="M299.838 249.595H279.912C280.059 252.195 283.654 254.916 285.933 255.297C289.754 255.939 290.863 252.697 293.358 252.212C294.406 252.004 299.656 251.406 298.963 253.477C289.225 270.222 265.945 256.095 275.398 239.446C283.013 226.047 303.668 235.061 299.838 249.595ZM293.774 244.395C292.535 236.239 281.376 236.707 279.912 244.395H293.774Z" fill="white"/>
<path d="M442.792 259.995L437.637 259.908L437.585 257.386C427.292 265.073 415.622 259.631 415.873 246.544C416.107 234.237 428.202 228.872 437.585 236.594L437.637 234.064L442.792 233.986V259.986V259.995ZM429.501 238.588C416.731 239.264 421.687 259.977 432.629 254.595C440.626 250.661 437.143 238.189 429.501 238.588Z" fill="white"/>
<path d="M470.516 225.328V242.661C472.604 241.535 476.286 234.098 477.629 233.318C478.972 232.538 482.585 233.457 484.378 233.136L476.537 246.527L486.111 259.995C477.014 262.179 474.701 254.699 470.083 248.728L470.516 259.995H463.585V225.336H470.516V225.328Z" fill="white"/>
<path d="M397.74 246.995V259.995H391.675V225.328H406.837C410.016 225.328 414.002 232.772 413.906 236.022C413.621 245.27 405.745 247.731 397.74 246.995ZM397.74 231.394C396.986 239.784 397.766 243.97 406.482 238.848C409.67 231.212 403.848 230.814 397.74 231.394Z" fill="white"/>
<path d="M246.989 225.328H253.062V234.861C257.836 232.764 263.901 231.741 267.669 236.282C268.44 237.21 270.381 241.327 270.381 242.237V260.003H264.316V244.837C264.316 242.367 261.622 238.362 258.685 238.397C255.748 238.362 253.053 242.367 253.053 244.837V260.003H246.989V225.336V225.328Z" fill="white"/>
<path d="M243.523 225.328L243.532 231.403L237.459 231.394V259.995H231.394V231.394L224.463 231.403V225.328H243.523Z" fill="white"/>
<path d="M448.857 233.994C451.386 234.185 453.752 232.859 454.479 235.728C456.212 233.778 458.343 232.824 460.977 233.128L460.882 239.108C458.907 238.934 454.913 241.17 454.913 243.103V260.003H448.848V234.003L448.857 233.994Z" fill="white"/>
<path d="M468.792 73.659L474.987 59.9309C502.979 58.2408 478.002 69.2737 468.792 73.659Z" fill="white"/>
</g>
<defs>
<clipPath id="clip0_534_856">
<rect width="649" height="261" fill="white"/>
</clipPath>
</defs>
</svg>
