<svg width="519" height="237" viewBox="0 0 519 237" fill="none" xmlns="http://www.w3.org/2000/svg">
<g clip-path="url(#clip0_534_884)">
<path d="M113.547 236.446V215.061C113.547 212.344 112.287 209.275 106.895 209.275C103.971 209.275 102.51 209.677 100.948 210.331V236.446H95.7566V208.318C98.5789 207.061 102.258 206.205 107.348 206.205C116.218 206.205 118.839 210.734 118.839 215.061V236.547H113.547V236.446Z" fill="white"/>
<path d="M137.134 237C128.465 237 124.736 230.358 124.736 221.603C124.736 212.847 128.566 206.104 137.134 206.104C145.701 206.104 149.531 212.646 149.531 221.603C149.531 230.559 145.701 237 137.134 237ZM137.134 209.325C131.035 209.325 129.927 215.665 129.927 221.653C129.927 227.641 131.187 233.679 137.134 233.679C143.081 233.679 144.34 227.59 144.34 221.653C144.34 215.715 143.232 209.325 137.134 209.325Z" fill="white"/>
<path d="M167.523 236.447H162.887L152.303 206.759H157.797L164.449 228.043C165.104 230.056 165.256 231.717 165.256 231.717H165.356C165.356 231.717 165.457 230.157 166.163 228.043L172.916 206.759H177.754L167.523 236.447Z" fill="white"/>
<path d="M192.975 237C184.306 237 180.577 230.358 180.577 221.603C180.577 212.847 184.407 206.104 192.975 206.104C201.542 206.104 205.373 212.646 205.373 221.603C205.373 230.559 201.643 237 192.975 237ZM192.975 209.325C186.876 209.325 185.768 215.665 185.768 221.653C185.768 227.641 187.128 233.679 192.975 233.679C198.821 233.679 200.182 227.59 200.182 221.653C200.182 215.715 199.073 209.325 192.975 209.325Z" fill="white"/>
<path d="M232.335 237C225.683 237 220.744 231.012 220.744 221.603C220.744 212.193 225.481 206.104 232.537 206.104C236.367 206.104 238.282 207.362 239.19 208.017L238.282 209.929C237.274 209.174 235.712 208.369 232.991 208.369C226.338 208.369 223.969 213.954 223.969 221.452C223.969 228.949 226.993 234.736 232.839 234.736C235.208 234.736 236.871 233.981 238.232 233.176L239.139 235.189C237.879 236.145 235.662 237.101 232.285 237.101L232.335 237Z" fill="white"/>
<path d="M246.951 200.469C245.842 200.469 244.834 199.613 244.834 198.456C244.834 197.399 245.741 196.443 246.951 196.443C248.06 196.443 249.068 197.299 249.068 198.456C249.068 199.513 248.06 200.469 246.951 200.469ZM245.389 236.447V206.759H248.564V236.447H245.389Z" fill="white"/>
<path d="M274.72 236.446V214.86C274.72 211.79 273.36 208.218 267.06 208.218C263.582 208.218 261.869 208.62 259.954 209.476V236.446H256.779V208.318C259.5 206.96 262.726 206.205 267.463 206.205C275.678 206.205 277.795 211.036 277.795 214.759V236.547H274.62V236.446H274.72Z" fill="white"/>
<path d="M287.572 222.911C288.025 230.811 291.956 234.685 298.256 234.685C301.734 234.685 304.203 233.83 305.917 232.874L306.925 234.987C305.262 235.943 302.086 236.899 298.256 236.899C290.596 236.899 284.649 232.572 284.649 221.401C284.649 210.985 290.041 206.155 296.694 206.155C303.346 206.155 308.033 210.18 308.033 220.043L287.572 222.911ZM296.442 208.469C291.402 208.469 287.421 212.143 287.421 221.099L304.758 218.583C304.758 211.187 301.582 208.469 296.442 208.469Z" fill="white"/>
<path d="M350.317 236.446V214.759C350.317 211.489 348.654 208.218 343.362 208.218C340.187 208.218 337.718 209.275 335.601 211.489V236.446H332.426V214.558C332.426 210.784 329.705 208.218 324.312 208.218C321.288 208.218 319.675 208.52 317.659 209.476V236.446H314.484V208.318C317.055 206.96 319.776 206.205 324.514 206.205C329.251 206.205 332.174 207.664 334.089 210.08C336.458 207.664 339.583 206.205 343.665 206.205C351.325 206.205 353.442 211.136 353.442 214.759V236.547H350.267V236.446H350.317Z" fill="white"/>
<path d="M370.93 237C363.169 237 359.792 233.528 359.792 228.446C359.792 220.546 367.554 218.131 377.583 217.175V215.162C377.583 209.778 374.206 208.318 369.821 208.318C366.798 208.318 364.076 209.375 362.514 210.231L361.607 208.318C363.27 207.463 366.546 206.205 370.174 206.205C375.466 206.205 380.506 208.318 380.506 215.262V234.937C378.238 236.094 374.861 236.95 370.93 236.95V237ZM377.583 218.986C368.259 220.143 362.967 221.854 362.967 228.546C362.967 233.276 366.142 235.189 371.384 235.189C373.652 235.189 376.02 234.786 377.583 234.031V218.986Z" fill="white"/>
<path d="M394.113 236.899C390.838 236.899 388.166 236.044 386.453 234.887L387.36 232.773C388.469 233.629 390.737 234.585 393.861 234.585C398.044 234.585 400.716 231.968 400.716 228.496C400.716 225.024 398.7 223.464 394.869 222.055C388.469 219.942 387.31 216.772 387.31 213.753C387.31 209.627 390.787 206.054 396.18 206.054C399.103 206.054 401.572 207.111 402.832 208.067L401.925 209.979C401.018 209.325 399.002 208.168 396.432 208.168C392.4 208.168 390.334 210.683 390.334 213.652C390.334 216.923 392.803 218.483 396.18 219.64C402.379 221.754 403.941 224.924 403.941 228.396C403.941 232.723 399.909 236.95 394.063 236.95L394.113 236.899Z" fill="white"/>
<path d="M12.146 162.529C11.5916 172.643 24.4432 170.529 29.8862 167.309C35.7827 163.736 41.0242 158.05 43.3425 151.61C45.5096 145.37 45.9632 138.577 46.1648 132.036C46.5176 122.324 46.5176 103.304 46.4168 93.4918C53.3717 102.197 57.3532 119.305 57.3532 119.305C57.6051 120.06 57.8067 120.865 58.0587 121.519C60.6794 130.426 66.576 138.426 77.1596 136.212C93.791 132.539 94.4462 111.053 97.2181 98.0204C98.3772 92.7873 99.5868 87.4536 101.452 82.3211C102.711 78.8491 104.173 75.4275 105.786 72.0561C107.147 69.2886 108.759 66.6217 110.574 64.0555C120.603 49.5638 135.974 37.5376 154.067 35.4243C167.271 33.8644 180.224 35.3236 191.311 43.2236C194.033 45.2364 196.654 47.4504 198.922 49.916C202.248 53.5892 204.969 58.4701 206.33 63.1497C202.55 63.0491 198.72 62.6969 194.94 62.1434C182.441 60.03 175.033 53.5892 164.651 47.1988C153.966 40.6071 138.797 52.7841 131.186 59.3255C131.186 59.3255 112.842 76.2326 111.279 101.543C110.271 117.242 114.253 132.841 123.576 145.622C129.926 154.427 139.401 161.673 149.632 165.799C157.595 169.02 167.271 171.033 175.94 171.033C206.229 171.033 242.062 144.213 243.322 87.051C243.322 87.051 250.63 84.2835 257.535 80.8115C256.728 85.2899 256.174 89.9192 255.72 94.3975C254.107 109.745 252.092 127.557 251.285 143.055C250.932 149.496 250.479 156.189 251.991 162.629C252.344 164.189 252.999 165.749 254.057 166.957C255.871 169.171 259.046 170.076 261.919 169.875C261.919 169.875 275.224 171.435 300.625 132.992C306.219 124.639 313.829 114.273 319.877 106.172C321.591 103.958 323.203 101.593 325.018 99.3791C327.286 96.4606 329.553 93.4918 331.872 90.674C337.214 83.9816 342.808 77.2892 348.604 70.9491C349.612 69.8421 350.771 68.7351 351.93 67.4771C351.93 67.4771 352.182 67.2759 352.283 67.1249C354.45 65.0115 356.718 62.8982 359.137 60.8854C361.405 58.8727 363.824 56.8599 366.193 54.9982C367.352 54.0924 368.36 53.3377 369.469 52.4319C370.174 51.979 370.83 51.4255 371.636 50.9727C374.005 49.3122 376.625 47.7523 379.145 46.2931C380.405 45.5383 381.665 44.8338 383.026 44.1797C383.278 44.079 384.286 43.5255 385.092 43.1733C390.082 40.9593 395.222 39.0472 400.464 37.588C411.954 34.4682 424.957 34.3676 436.549 36.9338C460.689 42.1669 476.968 67.4268 473.995 91.479C471.928 107.833 461.244 123.784 446.578 132.036C433.374 139.382 410.392 142.049 399.657 125.142C388.973 108.235 404.193 88.0574 404.193 88.0574C405.907 85.4911 407.721 83.1765 409.535 80.7109C414.071 74.8236 420.119 67.5778 416.389 59.6778C411.602 49.4128 398.196 58.1179 392.803 62.6969C389.023 65.9173 385.395 69.4899 382.22 73.3644C378.692 77.6918 375.517 82.472 372.997 87.5039C368.763 95.9574 365.941 105.317 365.387 114.776C365.034 120.01 365.135 125.595 365.941 130.677C367.654 142.049 372.291 152.616 380.758 160.768C389.628 169.322 402.631 171.435 414.676 170.68C428.687 169.674 442.899 164.441 454.642 157.094C468.753 148.188 481.403 136.917 491.079 123.482C493.801 119.708 496.22 115.682 498.387 111.556C504.889 98.8759 509.324 83.8306 509.324 69.7918C509.324 47.5007 499.395 23.7001 479.589 11.2211C462.857 0.754847 443.05 -1.5598 423.596 0.553572C418.254 1.10707 413.013 2.11344 407.872 3.47204C351.275 17.2593 305.211 76.4338 290.747 96.7625C289.588 98.3224 289.033 99.3287 287.572 99.2281C286.211 99.1274 286.11 97.316 286.211 96.6618C287.824 71.251 299.667 45.8905 299.667 45.8905C300.121 44.8841 300.222 44.4313 300.675 43.4249L301.028 42.7708C301.935 40.758 303.094 38.7453 304.002 36.7326C306.27 31.9523 308.084 26.9204 308.789 21.6873C309.596 15.4478 307.177 9.30899 299.567 9.86249C287.723 10.7682 281.826 23.0962 275.527 32.2542C267.665 43.7268 253.553 55.3001 241.508 58.772C225.229 -1.61012 169.791 0.60389 169.791 0.60389C96.7141 0.60389 75.8997 80.5599 75.8997 80.5599C64.3081 45.3873 42.0825 21.0835 35.4804 14.7434C28.8782 8.40325 22.1753 10.9695 22.1753 10.9695C15.0187 12.9822 9.07174 18.9701 5.34228 25.0083C1.00804 31.8013 -1.96545 37.2357 1.56242 45.488C1.20963 45.3873 16.6819 78.3459 12.146 162.529ZM210.463 101.14C209.656 107.581 207.489 114.927 204.314 120.613C203.407 122.173 202.399 123.633 201.24 124.941C197.611 128.815 192.571 131.834 187.33 133.092C185.868 133.445 184.256 133.646 182.794 133.747C179.367 133.948 176.091 133.646 172.866 132.64C167.624 130.979 162.635 127.96 158.653 124.186C155.126 120.865 152.152 117.041 149.884 112.814C147.969 109.141 146.255 104.361 145.348 100.335C144.34 95.8568 143.736 90.7746 144.189 86.1956V85.6421C161.476 99.5803 188.338 100.134 210.765 96.7625C210.765 98.2217 210.664 99.681 210.412 101.09L210.463 101.14Z" fill="#FFEF00"/>
<path d="M202.752 63.4011C210.11 63.7534 223.667 63.4011 236.871 58.9228C221.197 -2.21417 166.767 -0.000155439 166.767 -0.000155439C95.0005 -0.000155439 74.5389 80.7107 74.5389 80.7107C63.1489 45.1858 41.3265 20.6807 34.8755 14.2903C28.3742 7.89985 21.772 10.4661 21.772 10.4661C14.7163 12.4788 8.92049 18.5674 5.24143 24.6056C0.957586 31.4992 -1.91511 36.9839 1.51197 45.2865C1.51197 45.2865 16.7322 78.547 12.2468 163.535C11.6924 173.75 24.3423 171.636 29.6845 168.365C35.4803 164.793 40.6209 159.057 42.8888 152.515C45.0056 146.225 45.4591 139.382 45.6607 132.74C46.0135 122.978 46.0135 103.757 45.8623 93.8438C52.6661 102.599 56.5971 119.909 56.5971 119.909C56.7987 120.714 57.0507 121.469 57.2523 122.173C59.8226 131.18 65.6184 139.281 76.0508 137.017C92.3798 133.293 93.035 111.606 95.7061 98.4731C96.8148 93.1897 98.0748 87.8056 99.8387 82.6228C101.048 79.1508 102.51 75.6788 104.072 72.2572C105.433 69.4393 106.995 66.7725 108.759 64.1559C118.587 49.5635 133.706 37.3865 151.446 35.2731C164.399 33.7132 177.149 35.1725 187.985 43.1228C190.656 45.1355 193.226 47.3998 195.494 49.8655C198.619 53.589 201.189 58.6209 202.651 63.3508L202.752 63.4011Z" fill="url(#paint0_linear_534_884)"/>
<path d="M247.304 143.207C246.951 149.647 246.497 156.34 248.009 162.831C248.362 164.391 249.068 165.951 250.076 167.158C251.94 169.372 255.166 170.278 258.038 170.077C258.038 170.077 271.545 171.637 297.349 133.193C302.994 124.84 310.755 114.475 316.853 106.323C318.567 104.109 320.179 101.744 322.044 99.5302C324.362 96.6117 326.681 93.6429 328.999 90.8251C334.442 84.1327 340.087 77.4403 345.983 71.1002C347.042 69.9932 348.201 68.8862 349.309 67.6282L349.662 67.276C351.88 65.1626 354.148 63.0493 356.617 61.0365C358.936 59.0238 361.355 57.011 363.774 55.1493C364.933 54.2435 365.991 53.4888 367.1 52.583C367.806 52.1302 368.511 51.5766 369.318 51.1238C371.737 49.4633 374.408 47.9034 376.928 46.4442C378.188 45.6894 379.448 44.9849 380.859 44.3308C381.111 44.2302 382.119 43.6767 382.925 43.3244C388.015 41.1104 393.206 39.1983 398.548 37.7391C410.241 34.6193 423.395 34.5187 435.188 37.0849C459.681 42.3181 476.212 67.6282 473.188 91.6805C471.122 108.034 460.236 123.985 445.318 132.237C431.912 139.584 408.578 142.251 397.692 125.344C386.806 108.386 402.328 88.2588 402.328 88.2588C404.042 85.6926 405.907 83.3779 407.771 80.9123C412.408 75.0251 418.506 67.7792 414.726 59.8792C409.888 49.6142 396.23 58.3193 390.787 62.8983C386.957 66.1187 383.278 69.6913 380.052 73.6161C376.474 77.9435 373.249 82.7741 370.678 87.7556C366.394 96.2091 363.522 105.568 362.917 115.028C362.564 120.261 362.665 125.847 363.471 130.979C365.185 142.351 369.922 152.918 378.49 161.07C387.511 169.624 400.665 171.787 412.912 170.982C427.124 169.976 441.588 164.743 453.482 157.396C467.795 148.49 480.647 137.219 490.475 123.733C493.247 119.959 495.666 115.934 497.883 111.808C504.485 99.1276 508.971 84.0824 508.971 70.0435C508.971 47.7524 498.942 23.9015 478.833 11.4225C461.848 0.956273 441.74 -1.4087 421.984 0.70468C416.541 1.25818 411.249 2.26455 406.058 3.62315C348.654 17.4607 301.834 76.5849 287.169 96.9639C286.009 98.5238 285.455 99.5302 283.943 99.4295C282.532 99.3289 282.431 97.5174 282.532 96.8633C284.145 71.4525 296.19 46.0416 296.19 46.0416C296.643 45.0352 296.744 44.5824 297.248 43.576L297.601 42.9219C298.508 40.9091 298.508 41.1607 299.466 39.148C299.718 38.6951 299.818 38.4939 300.02 38.041C288.126 62.4454 253.805 80.9123 253.805 80.9123C252.999 85.3907 252.394 90.0703 251.94 94.4983C250.076 109.896 248.11 127.709 247.304 143.156V143.207Z" fill="url(#paint1_linear_534_884)"/>
<path d="M201.593 129.167C202.701 127.809 203.81 126.299 204.566 124.739C207.64 118.953 209.707 111.405 210.513 104.813C210.614 103.354 210.715 101.845 210.715 100.385C210.715 100.385 225.884 97.4165 241.911 90.6235C241.558 108.587 237.98 123.733 232.335 135.91L201.593 129.218V129.167Z" fill="url(#paint2_linear_534_884)"/>
<path d="M504.183 7.24583V14.7433H502.066V7.24583H499.143V5.83691H507.207L507.005 7.24583H504.183Z" fill="white"/>
<path d="M516.984 14.7433L516.631 10.2649C516.53 9.15793 516.53 8.00061 516.53 7.49742H516.43L514.414 13.7369H512.398L510.281 7.49742H510.18C510.281 8.05093 510.281 9.30889 510.18 10.4159L509.827 14.693H507.812L508.719 5.83691H511.39L513.406 12.0764H513.506L515.422 5.83691H518.093L519 14.693H516.984V14.7433Z" fill="white"/>
</g>
<defs>
<linearGradient id="paint0_linear_534_884" x1="157.746" y1="130.627" x2="100.729" y2="36.7495" gradientUnits="userSpaceOnUse">
<stop stop-color="#DEB408"/>
<stop offset="0.14" stop-color="#E9C400" stop-opacity="0.86"/>
<stop offset="0.39" stop-color="#F8D900" stop-opacity="0.61"/>
<stop offset="0.66" stop-color="#FFE800" stop-opacity="0.34"/>
<stop offset="1" stop-color="#FFEF00" stop-opacity="0"/>
</linearGradient>
<linearGradient id="paint1_linear_534_884" x1="320.129" y1="33.0595" x2="340.761" y2="90.3447" gradientUnits="userSpaceOnUse">
<stop stop-color="#DEB408"/>
<stop offset="0.14" stop-color="#E9C400" stop-opacity="0.86"/>
<stop offset="0.39" stop-color="#F8D900" stop-opacity="0.61"/>
<stop offset="0.66" stop-color="#FFE800" stop-opacity="0.34"/>
<stop offset="1" stop-color="#FFEF00" stop-opacity="0"/>
</linearGradient>
<linearGradient id="paint2_linear_534_884" x1="216.107" y1="95.5044" x2="233.647" y2="130.205" gradientUnits="userSpaceOnUse">
<stop stop-color="#DEB408"/>
<stop offset="0.05" stop-color="#E3BB05" stop-opacity="0.93"/>
<stop offset="0.28" stop-color="#F5D500" stop-opacity="0.61"/>
<stop offset="0.51" stop-color="#FFE600" stop-opacity="0.3"/>
<stop offset="0.73" stop-color="#FFEF00" stop-opacity="0"/>
</linearGradient>
<clipPath id="clip0_534_884">
<rect width="519" height="237" fill="white"/>
</clipPath>
</defs>
</svg>
