<svg width="410" height="142" viewBox="0 0 410 142" fill="none" xmlns="http://www.w3.org/2000/svg">
<g clip-path="url(#clip0_311_1968)">
<mask id="mask0_311_1968" style="mask-type:luminance" maskUnits="userSpaceOnUse" x="0" y="0" width="410" height="142">
<path d="M410 0H0V142H410V0Z" fill="white"/>
</mask>
<g mask="url(#mask0_311_1968)">
<path d="M189.211 132.658C189.32 129.352 186.71 126.585 183.374 126.478C183.338 126.478 183.302 126.478 183.266 126.478C179.858 126.621 177.211 129.46 177.356 132.837C177.501 136.035 180.075 138.551 183.266 138.694C183.628 138.694 183.991 138.694 184.353 138.586C183.809 138.838 183.266 139.018 182.685 139.161H181.997C181.489 139.161 181.417 139.341 181.417 139.449C181.417 139.628 181.598 139.736 181.815 139.736C182.105 139.736 182.504 139.557 182.685 139.557C183.266 139.808 183.773 140.203 184.136 140.706C184.824 141.497 185.803 141.964 186.855 141.964C187.725 141.964 188.124 141.569 188.124 141.497L188.232 141.389L188.051 141.209H187.942C187.942 141.209 187.761 141.497 187.362 141.497C186.782 141.497 186.383 141.317 185.223 140.347C184.643 139.916 183.991 139.593 183.266 139.377C184.389 139.018 185.441 138.443 186.383 137.724C188.16 136.61 189.211 134.706 189.211 132.622M179.314 132.622C179.314 128.382 181.344 126.837 183.302 126.837C185.151 126.837 187.29 128.382 187.29 132.622C187.29 138.119 183.882 138.299 183.302 138.299C182.613 138.299 179.314 138.119 179.314 132.622ZM194.939 126.657V126.55H194.649L190.371 138.227H189.211V138.515H191.93V138.227H190.661L192.039 134.562H196.136L197.513 138.227H196.063V138.515H200.921V138.227H199.362L194.976 126.657H194.939ZM192.22 134.203L194.069 129.173L195.918 134.203H192.22ZM206.795 127.053C208.426 126.981 209.84 128.238 209.912 129.855V129.927L210.021 130.035H210.311V126.657H199.906V130.035H200.305V129.927C200.305 128.31 201.683 127.017 203.314 127.053H203.387H204.148V138.227H202.589V138.515H207.556V138.227H205.997V127.053H206.758H206.795ZM232.535 138.048L232.644 137.94L232.463 137.652L232.354 137.832C232.1 138.119 231.774 138.299 231.375 138.299C230.614 138.299 230.396 137.724 230.396 135.892C230.614 134.203 229.381 132.658 227.677 132.442C227.605 132.442 227.568 132.442 227.496 132.442C228.873 132.263 229.925 131.113 229.925 129.747C229.925 127.807 228.366 126.657 225.647 126.657H220.898V127.053H222.456V138.227H219.447L215.061 126.657V126.55H214.771L210.493 138.227H209.332V138.515H212.051V138.227H210.783L212.16 134.562H216.257L217.635 138.227H216.184V138.515H225.792V138.227H224.342V132.622H225.611C227.351 132.622 228.438 132.73 228.438 135.137C228.438 138.227 229.417 138.802 231.049 138.802C231.665 138.802 232.245 138.551 232.608 138.012M212.378 134.203L214.227 129.173L216.076 134.203H212.378ZM228.003 129.783C228.003 131.508 227.315 132.299 225.973 132.299H224.342V127.088H225.719C227.75 127.088 228.04 128.346 228.04 129.783M262.662 44.6265C270.421 44.6624 277.309 39.5961 279.484 32.1943V32.0146L278.506 31.6194L278.397 31.799C276.475 38.8775 270.022 43.8 262.662 43.836C249.538 43.836 247.581 30.3258 247.581 22.3491C247.581 11.8572 251.569 0.754488 262.662 0.754488C271.69 0.754488 275.496 8.08445 277.055 14.3365V14.4443H277.744V0.862281H277.055V0.970075C276.657 2.01208 275.569 2.65884 274.445 2.51512C272.995 2.44325 271.581 2.11987 270.276 1.54497C267.847 0.646694 265.273 0.107727 262.699 -6.67826e-05C256.717 -0.0719291 250.989 2.40732 246.964 6.75499C243.013 11.0308 240.874 16.6001 240.946 22.3851C240.366 34.0986 249.502 44.0516 261.321 44.6265C261.792 44.6265 262.227 44.6265 262.699 44.6265M242.868 70.1735C245.768 54.1841 253.961 50.8066 260.27 50.8066C266.578 50.8066 274.771 54.1841 277.672 70.1735V70.3532H285.176L285.068 70.0657C281.478 57.8132 271.762 50.0161 260.27 50.0161C248.342 50.3395 238.118 58.5677 235.399 70.0657L235.29 70.3532H242.868V70.1735ZM286.373 77.7909H278.397V80.0905C278.397 94.2474 273.648 109.303 260.233 109.303C246.819 109.303 242.07 94.2833 242.07 80.0905V77.7909H233.985V77.9706C233.985 78.7611 233.877 79.4078 233.877 80.0905C233.804 87.7079 236.378 95.1457 241.164 101.11C249.611 111.53 264.983 113.219 275.496 104.847C276.874 103.733 278.143 102.476 279.267 101.11C284.016 95.1457 286.554 87.7079 286.445 80.0905C286.445 79.3719 286.445 78.6892 286.337 77.9706V77.7909H286.373ZM344.706 50.8066L326.615 98.0202L308.633 51.669H331.074V35.464H330.313V35.6437C329.805 45.1654 325.056 50.8785 317.588 50.8785H308.379V50.8066H304.391V24.7565H308.669C315.376 24.7565 318.567 27.9544 318.965 34.961V35.1406H319.727V13.6178H318.965V13.7975C318.567 20.9478 315.485 24.002 308.669 24.002H304.391V0.790419H314.687C322.446 0.790419 326.833 4.95844 327.521 13.1148V13.2945H328.283V-6.67826e-05H290.288V0.790419H296.923V50.8425H292.572V51.7049H299.461V108.584H292.572V109.374H308.415V108.584H300.911V53.4296L322.41 109.339H323.86L344.742 54.6872V108.584H337.165V109.374H410.036V91.1573H409.166V91.337C408.586 102.116 403.148 108.584 394.701 108.584H379.728V78.9048H384.513C392.199 78.9048 395.897 82.462 396.296 90.5824V90.7621H397.166V66.257H396.296V66.4367C395.897 74.629 392.308 78.1143 384.513 78.1143H379.728V51.7049H391.402C400.248 51.7049 405.214 56.4119 405.976 65.6821V65.8618H406.846V50.8425H344.742L344.706 50.8066ZM371.208 108.548H353.117V51.669H371.208V108.548ZM207.955 0.21552L207.846 0.0358644H205.924L187 50.8425H172.716V35.4999H171.954V35.6796C171.447 44.7342 166.987 50.3395 160.099 50.8066H145.996V0.790419H152.594V-6.67826e-05H131.784V0.790419H138.491V50.8425H94.95V28.673H100.968C112.932 28.673 119.82 23.463 119.82 14.3005C119.82 5.13809 112.642 -6.67826e-05 99.6268 -6.67826e-05H78.9256V0.790419H86.5028V50.8425H0V51.7049H7.68591L29.076 108.584H21.7526V109.374H192.438C222.456 109.374 225.683 88.9296 225.683 80.1624C225.937 72.9402 223.472 65.8618 218.795 60.2924C214.372 55.6933 208.499 52.675 202.19 51.7049H231.629V50.8425H226.952L207.955 0.21552ZM94.95 0.790419H99.6994C110.467 0.790419 111.953 7.65327 111.953 14.3005C111.953 20.9478 110.684 27.8825 100.787 27.8825H94.9863V0.790419H94.95ZM16.2419 51.669H51.2273L33.8253 98.4154L16.2419 51.669ZM65.4028 108.548H31.5775L52.75 51.669H65.3665V108.548H65.4028ZM115.651 108.548H104.195V91.0855H103.325V91.2651C102.745 102.044 97.3066 108.512 88.8593 108.512H73.8863V78.8329H78.6719C86.3578 78.8329 90.0557 82.3901 90.4545 90.5106V90.6902H91.3246V66.1852H90.4545V66.3648C90.0557 74.5571 86.4665 78.0424 78.7081 78.0424H73.9225V51.633H85.5964C94.4425 51.633 99.4093 56.34 100.171 65.6103V65.7899H101.041V51.633H114.854L115.724 52.8906V108.512L115.651 108.548ZM117.101 108.548V54.8668L155.096 108.548H117.101ZM156.437 96.1158L124.389 51.669H156.437V96.1158ZM175.398 108.548H157.815V51.669H175.398V108.548ZM203.894 9.73728L212.813 33.38H195.157L203.894 9.73728ZM216.728 80.0905C216.728 99.17 208.861 108.512 192.438 108.512H183.773V51.633H192.438C208.861 51.633 216.728 60.9033 216.728 80.0546M192.438 50.8066H188.74L194.577 34.8891H213.429L219.339 50.8066H192.438ZM173.332 132.155H65.4028V133.017H173.332V132.155ZM353.153 132.155H236.668V133.017H353.153V132.155Z" fill="white"/>
</g>
</g>
<defs>
<clipPath id="clip0_311_1968">
<rect width="410" height="142" fill="white"/>
</clipPath>
</defs>
</svg>
